<svg id="Capa_1" enable-background="new 0 0 512 512" height="512" viewBox="0 0 512 512" width="512" xmlns="http://www.w3.org/2000/svg"><g><path d="m512 121.75v325.25c0 35.84-29.16 65-65 65h-382c-35.84 0-65-29.16-65-65v-325.25l256-56z" fill="#e7f2ff"/><path d="m512 121.75v325.25c0 35.84-29.16 65-65 65h-191v-446.25z" fill="#9dcfff"/><path d="m414.42 206.67v220.45c0 5.53-4.48 10-10 10h-296.84c-5.52 0-10-4.47-10-10v-220.45c0-5.53 4.48-10 10-10h296.84c5.52 0 10 4.47 10 10z" fill="#00ddc0"/><path d="m414.42 206.67v220.45c0 5.53-4.48 10-10 10h-148.42v-240.45h148.42c5.52 0 10 4.47 10 10z" fill="#00ba9f"/><path d="m340.48 274.865-13.781-25.087c-2.635-4.798-7.674-7.778-13.146-7.778h-115.106c-5.473 0-10.512 2.98-13.146 7.778l-13.781 25.087c-3.989 7.261-1.337 16.38 5.925 20.368 7.262 3.99 16.381 1.335 20.368-5.925l9.508-17.308h33.679v103.667c0 8.284 6.716 15 15 15s15-6.716 15-15v-103.667h33.679l9.509 17.309c3.99 7.266 13.114 9.912 20.368 5.925 7.261-3.989 9.914-13.108 5.924-20.369z" fill="#ffea80"/><path d="m334.56 295.23c-7.26 3.99-16.38 1.34-20.37-5.92l-9.51-17.31h-33.68v103.67c0 8.28-6.72 15-15 15v-148.67h57.55c5.48 0 10.51 2.98 13.15 7.78l13.78 25.09c3.99 7.26 1.34 16.38-5.92 20.36z" fill="#f3d332"/><path d="m512 65v56.75h-512v-56.75c0-35.84 29.16-65 65-65h382c35.84 0 65 29.16 65 65z" fill="#00ddc0"/><path d="m512 65v56.75h-256v-121.75h191c35.84 0 65 29.16 65 65z" fill="#00ba9f"/><g><g><g><path d="m353.144 50.75h-270.47c-8.284 0-15 6.716-15 15s6.716 15 15 15h270.469c8.284 0 15-6.716 15-15s-6.715-15-14.999-15z" fill="#e7f2ff"/></g></g></g><g><g><g><path d="m429.325 50.75h-15c-8.284 0-15 6.716-15 15s6.716 15 15 15h15c8.284 0 15-6.716 15-15s-6.716-15-15-15z" fill="#9dcfff"/></g><g><path d="m368.14 65.75c0 8.28-6.71 15-15 15h-97.14v-30h97.14c8.29 0 15 6.72 15 15z" fill="#9dcfff"/></g></g></g></g></svg>