<svg id="Capa_1" enable-background="new 0 0 512 512" height="512" viewBox="0 0 512 512" width="512" xmlns="http://www.w3.org/2000/svg"><g><path d="m294.79 3.037c-3.736-2.83-8.583-3.746-13.093-2.477l-181.905 51.179c-6.456 1.817-10.915 7.704-10.915 14.41v196.548c0 8.267 6.702 14.969 14.969 14.969s14.969-6.702 14.969-14.969v-91.673l151.966-42.756v117.564c0 8.267 6.702 14.969 14.969 14.969s14.969-6.702 14.969-14.969v-230.863c.002-4.686-2.193-9.102-5.929-11.932zm-175.974 136.885v-62.434l151.966-42.756v62.434z" fill="#9dcfff"/><path d="m294.793 3.034c-2.635-1.986-5.818-3.034-9.042-3.034-1.357 0-2.714.18-4.052.559l-86.902 24.45v31.106l75.985-21.386v62.432l-75.985 21.386v31.096l75.985-21.376v117.56c0 8.273 6.696 14.969 14.969 14.969 8.263 0 14.969-6.696 14.969-14.969v-230.858c.001-4.69-2.195-9.101-5.927-11.935z" fill="#3ba9ff"/><path d="m379.344 247.73 23.286 132.135-23.286 132.135c-72.86 0-132.13-59.28-132.13-132.14s59.27-132.13 132.13-132.13z" fill="#ffea80"/><path d="m379.344 512v-264.27c72.86 0 132.13 59.28 132.13 132.14s-59.27 132.13-132.13 132.13z" fill="#f3d332"/><path d="m420.924 371.221-57.748-33.341c-6.653-3.841-14.969.96-14.969 8.643v66.681c0 7.682 8.316 12.484 14.969 8.643l57.748-33.341c6.653-3.841 6.653-13.444 0-17.285z" fill="#3ba9ff"/><path d="m420.921 388.506-41.575 24.011v-65.307l41.575 24.011c6.657 3.843 6.657 13.443 0 17.285z" fill="#0081ff"/><circle cx="59.671" cy="264.154" fill="#3ba9ff" r="59.145"/><circle cx="241.576" cy="247.289" fill="#0081ff" r="59.145"/></g></svg>