<svg id="Capa_1" enable-background="new 0 0 512 512" height="512" viewBox="0 0 512 512" width="512" xmlns="http://www.w3.org/2000/svg"><g><path d="m512 199v298c0 8.28-6.72 15-15 15h-482c-8.28 0-15-6.72-15-15v-298l256-36z" fill="#e7f2ff"/><path d="m512 199v298c0 8.28-6.72 15-15 15h-241v-313z" fill="#9dcfff"/><path d="m512 94.5v104.5h-512v-104.5c0-8.28 6.72-15 15-15h482c8.28 0 15 6.72 15 15z" fill="#ff5e94"/><path d="m512 94.5v104.5h-256v-119.5h241c8.28 0 15 6.72 15 15z" fill="#ff3980"/><path d="m400.67 385.67c-8.29 0-15 6.71-15 15v111.33h111.33c8.28 0 15-6.72 15-15 0-13.935 0-100.706 0-111.33z" fill="#3ba9ff"/><g><g><path d="m395.319 158c-8.284 0-15-6.716-15-15v-99.542c0-23.963 19.496-43.458 43.459-43.458 17.244 0 32.867 10.203 39.803 25.994 3.331 7.585-.118 16.435-7.703 19.766-7.586 3.331-16.435-.118-19.766-7.703-2.149-4.895-6.99-8.057-12.334-8.057-7.421 0-13.459 6.037-13.459 13.458v99.542c0 8.284-6.715 15-15 15z" fill="#f3d332"/></g></g><g><g><path d="m256 158c-8.284 0-15-6.716-15-15v-99.542c0-23.963 19.495-43.458 43.458-43.458 17.243 0 32.867 10.203 39.803 25.993 3.332 7.584-.116 16.434-7.701 19.766-7.582 3.332-16.434-.115-19.766-7.701-2.15-4.895-6.992-8.058-12.336-8.058-7.421 0-13.458 6.037-13.458 13.458v99.542c0 8.284-6.716 15-15 15z" fill="#ffea80"/></g></g><g><g><path d="m316.56 45.76c-7.58 3.33-16.43-.12-19.77-7.7-2.15-4.9-6.99-8.06-12.33-8.06-7.42 0-13.46 6.04-13.46 13.46v99.54c0 8.28-6.72 15-15 15v-147.36c7.64-6.62 17.59-10.64 28.46-10.64 17.24 0 32.87 10.2 39.8 25.99 3.33 7.59-.12 16.44-7.7 19.77z" fill="#f3d332"/></g></g><g><g><path d="m116.681 158c-8.284 0-15-6.716-15-15v-99.542c0-23.963 19.495-43.458 43.458-43.458 17.244 0 32.867 10.203 39.803 25.994 3.331 7.585-.118 16.435-7.703 19.766-7.584 3.331-16.434-.118-19.766-7.703-2.149-4.895-6.99-8.057-12.334-8.057-7.421 0-13.458 6.037-13.458 13.458v99.542c0 8.284-6.716 15-15 15z" fill="#ffea80"/></g></g><path d="m382.319 283.833h17.334c8.284 0 15-6.716 15-15s-6.716-15-15-15h-17.334c-8.284 0-15 6.716-15 15s6.716 15 15 15z" fill="#434b50"/><path d="m399.653 322.583h-17.334c-8.284 0-15 6.716-15 15s6.716 15 15 15h17.334c8.284 0 15-6.716 15-15s-6.715-15-15-15z" fill="#434b50"/><path d="m264.667 253.833h-17.333c-8.284 0-15 6.716-15 15s6.716 15 15 15h17.333c8.284 0 15-6.716 15-15s-6.716-15-15-15z" fill="#676e74"/><path d="m279.67 268.83c0 8.29-6.72 15-15 15h-8.67v-30h8.67c8.28 0 15 6.72 15 15z" fill="#434b50"/><path d="m264.667 322.583h-17.333c-8.284 0-15 6.716-15 15s6.716 15 15 15h17.333c8.284 0 15-6.716 15-15s-6.716-15-15-15z" fill="#676e74"/><path d="m279.67 337.58c0 8.29-6.72 15-15 15h-8.67v-30h8.67c8.28 0 15 6.72 15 15z" fill="#434b50"/><path d="m264.667 391.333h-17.333c-8.284 0-15 6.716-15 15s6.716 15 15 15h17.333c8.284 0 15-6.716 15-15s-6.716-15-15-15z" fill="#676e74"/><path d="m279.67 406.33c0 8.29-6.72 15-15 15h-8.67v-30h8.67c8.28 0 15 6.72 15 15z" fill="#434b50"/><g fill="#676e74"><path d="m129.681 253.833h-17.334c-8.284 0-15 6.716-15 15s6.716 15 15 15h17.334c8.284 0 15-6.716 15-15s-6.716-15-15-15z"/><path d="m129.681 322.583h-17.334c-8.284 0-15 6.716-15 15s6.716 15 15 15h17.334c8.284 0 15-6.716 15-15s-6.716-15-15-15z"/><path d="m129.681 391.333h-17.334c-8.284 0-15 6.716-15 15s6.716 15 15 15h17.334c8.284 0 15-6.716 15-15s-6.716-15-15-15z"/></g><path d="m385.67 512h111.33c8.28 0 15-6.72 15-15 0-13.935 0-100.706 0-111.33z" fill="#0081ff"/></g></svg>