<svg id="Capa_1" enable-background="new 0 0 511.937 511.937" height="512" viewBox="0 0 511.937 511.937" width="512" xmlns="http://www.w3.org/2000/svg"><g><path d="m255.969 293.327 45.186 116.61-45.186 102h-149.69c-8.28 0-15-6.72-15-15v-38.92c0-90.81 73.88-164.69 164.69-164.69z" fill="#00ddc0"/><path d="m420.659 458.017v38.92c0 8.28-6.71 15-15 15h-48.09l-51.805-10.8-49.795 10.8v-218.61c15.66 0 30.82 2.2 45.19 6.3 4.62 1.32 9.17 2.84 13.62 4.55 61.85 23.72 105.88 83.74 105.88 153.84z" fill="#00ba9f"/><path d="m224.779 238.447c-8.28 0-15 6.71-15 15v97.54c0 24.92 20.28 45.19 45.19 45.19.34 0 .67 0 1-.01v-157.72z" fill="#ffa68c"/><path d="m301.155 253.448v97.54c0 24.92-20.27 45.19-45.19 45.19v-157.73h30.19c8.29 0 15 6.709 15 15z" fill="#f59280"/><path d="m255.969 101.937 22.591 121.783-22.591 99.537c-54.94 0-99.64-44.7-99.64-99.65v-106.67c0-8.28 6.71-15 15-15z" fill="#ffbda9"/><path d="m355.615 116.938v106.67c0 54.95-44.7 99.65-99.65 99.65v-221.32h84.65c8.28 0 15 6.719 15 15z" fill="#ffa68c"/><path d="m194.549 28.42c-17.1.85-33.05 8.05-45.02 20.38-12.3 12.66-19.08 29.36-19.08 47.01v29.59c0 26.16 21.29 47.45 47.46 47.45h78.056l25.504-70.913-25.504-73.617c-63.973 0-60.222-.047-61.416.1z" fill="#5a5a5a"/><path d="m380.985 15v60.7c0 25.16-9.61 48.12-25.37 65.39-17.77 19.5-43.37 31.76-71.78 31.76h-27.87v-144.53h38.27c8.87 0 17.72-2.16 25.59-6.25l39.25-20.38c4.634-2.413 10.208-2.235 14.7.49 4.48 2.72 7.21 7.58 7.21 12.82z" fill="#444"/><path d="m342.569 425.557h-71.604c-8.29 0-15 6.71-15 15v71.38h101.604v-71.38c0-8.29-6.71-15-15-15z" fill="#ffea80"/></g></svg>