<svg id="Capa_1" enable-background="new 0 0 512 512" height="512" viewBox="0 0 512 512" width="512" xmlns="http://www.w3.org/2000/svg"><g><path d="m256 15 38.616 219.79-38.616 262.21c-133.1 0-241-107.9-241-241s107.9-241 241-241z" fill="#e7f2ff"/><path d="m496.996 256c0 133.1-107.9 241-241 241v-482c133.1 0 241 107.9 241 241z" fill="#9dcfff"/><path d="m437.02 74.98c-48.353-48.351-112.64-74.98-181.02-74.98s-132.667 26.629-181.02 74.98c-48.351 48.353-74.98 112.64-74.98 181.02s26.629 132.667 74.98 181.02c48.353 48.351 112.64 74.98 181.02 74.98s132.667-26.629 181.02-74.98c48.351-48.353 74.98-112.64 74.98-181.02s-26.629-132.667-74.98-181.02zm-181.02-44.98c56.922 0 108.989 21.162 148.767 56.02l-318.747 318.747c-34.858-39.778-56.02-91.845-56.02-148.767 0-124.617 101.383-226 226-226zm0 452c-56.922 0-108.989-21.162-148.767-56.02l318.747-318.747c34.858 39.778 56.02 91.845 56.02 148.767 0 124.617-101.383 226-226 226z" fill="#ff5e94"/><path d="m437.016 74.98c-48.35-48.35-112.64-74.98-181.02-74.98v30c56.93 0 108.99 21.16 148.77 56.02l-81.79 81.79-66.98 66.98v42.43l.57-.57 87.42-87.43 81.99-81.99c34.86 39.78 56.02 91.85 56.02 148.77 0 124.62-101.38 226-226 226v30c68.38 0 132.67-26.63 181.02-74.98 48.36-48.35 74.98-112.64 74.98-181.02s-26.62-132.67-74.98-181.02z" fill="#ff3980"/><path d="m287.038 177.721h-62.076v-68.268c0-17.142 13.896-31.038 31.038-31.038 17.142 0 31.038 13.896 31.038 31.038z" fill="#f3d332"/><path d="m287.036 109.45v68.27h-31.04v-99.3c8.57 0 16.33 3.47 21.95 9.09 5.62 5.61 9.09 13.37 9.09 21.94z" fill="#ffa64d"/><path d="m201.205 370.634 54.791-24.134 54.799 24.134v14.155c0 30.263-24.533 48.795-54.795 48.795-30.263 0-54.795-18.533-54.795-48.795z" fill="#f3d332"/><path d="m310.796 370.63v14.16c0 30.26-24.53 48.79-54.8 48.79v-62.95z" fill="#ffa64d"/><path d="m368.61 370.63h-225.22c-18.45 0-29.77-20.22-20.1-35.94l17.23-28.04 3.05-4.97c1.86-3.02 2.84-6.49 2.84-10.03v-37.1c0-30.27 12.27-57.66 32.1-77.49 19.83-19.84 47.23-32.1 77.49-32.1 60.53 0 109.59 49.06 109.59 109.59v37.1c0 3.54.98 7.01 2.84 10.03l3.05 4.97 17.23 28.04c9.67 15.72-1.65 35.94-20.1 35.94z" fill="#ffea80"/><path d="m368.606 370.63h-112.61v-225.67c10.78 0 21.2 1.56 31.04 4.47 13.19 3.87 25.34 10.17 35.94 18.38 7.95 6.14 15.02 13.35 21.01 21.41 13.58 18.24 21.6 40.84 21.6 65.33v37.1c0 3.54.98 7.01 2.84 10.03l3.05 4.97 17.23 28.04c9.67 15.72-1.65 35.94-20.1 35.94z" fill="#f3d332"/><path d="m371.48 306.65h-230.96l3.05-4.97c1.86-3.02 2.84-6.49 2.84-10.03v-15h219.18v15c0 3.54.98 7.01 2.84 10.03z" fill="#f3d332"/><path d="m371.476 306.65h-115.48v-30h109.59v15c0 3.54.98 7.01 2.84 10.03z" fill="#ffa64d"/></g></svg>