<svg id="Capa_1" enable-background="new 0 0 512 512" height="512" viewBox="0 0 512 512" width="512" xmlns="http://www.w3.org/2000/svg"><g><path d="m256 0 39.751 230-39.751 282h-241c-8.28 0-15-6.72-15-15v-482c0-8.28 6.72-15 15-15z" fill="#e7f2ff"/><path d="m512 15v482c0 8.28-6.72 15-15 15h-241v-512h241c8.28 0 15 6.72 15 15z" fill="#9dcfff"/><path d="m271 423.99c0 8.28-6.72 15-15 15h-168c-8.28 0-15-6.72-15-15v-185.99h-73v-30h88c8.28 0 15 6.72 15 15v185.99h153c8.28 0 15 6.71 15 15z" fill="#ffea80"/><path d="m512 73.01v30h-128.54c-8.28 0-15-6.71-15-15v-88.01h30v73.01z" fill="#f3d332"/><path d="m512 266v30h-71v216h-30v-231c0-8.28 6.72-15 15-15z" fill="#f3d332"/><path d="m256 73.02 23.5 182.98-23.5 182.99c-5.67 0-10.85-3.2-13.4-8.26l-92.62-183.89c-18.65-37.03-17.04-80.43 4.31-116.09 21.01-35.1 57.8-56.67 98.43-57.69 1.09-.03 2.18-.04 3.28-.04z" fill="#ff5e94"/><path d="m362.02 246.84-92.62 183.89c-2.55 5.06-7.73 8.26-13.4 8.26v-365.97c1.1 0 2.19.01 3.28.04 40.63 1.02 77.42 22.59 98.43 57.69 21.35 35.66 22.96 79.06 4.31 116.09z" fill="#ff3980"/><circle cx="256" cy="183" fill="#ffea80" r="47"/><path d="m303 183c0 25.92-21.08 47-47 47v-94c25.92 0 47 21.08 47 47z" fill="#f3d332"/></g></svg>