<svg id="Capa_1" enable-background="new 0 0 512 512" height="512" viewBox="0 0 512 512" width="512" xmlns="http://www.w3.org/2000/svg"><g><path d="m219.221 40.78v84.87c0 22.49-18.29 40.78-40.78 40.78h-35.66c-6.48 0-12.26 4.11-14.39 10.23-9.17 26.34-13.57 52.45-13.22 79.34l-58.617 33.545-56.553-33.545c0-75.719 18.029-158.274 59.35-223.22 13.05-20.53 35.37-32.78 59.7-32.78h59.39c22.49 0 40.78 18.29 40.78 40.78z" fill="#00ddc0"/><path d="m347.5 168.84 28.167 87.082-28.167 87.078h-12.57l-55.43 62.22c-2.9 3.26-7 5.03-11.2 5.03-1.79 0-3.6-.33-5.34-.99-5.81-2.21-9.66-7.79-9.66-14.02v-53.56c-39.91-7.11-70.3-42.06-70.3-83.98v-3.55c0-47.04 38.27-85.31 85.3-85.31z" fill="#ffea80"/><path d="m512 254.154v3.55c0 47.03-38.26 85.3-85.3 85.3h-79.2v-174.16h79.2c47.04 0 85.3 38.27 85.3 85.31z" fill="#f3d332"/><circle cx="268.64" cy="255.922" fill="#3ba9ff" r="16.023"/><circle cx="347.5" cy="255.922" fill="#3ba9ff" r="16.023"/><path d="m363.523 255.919c0 8.85-7.18 16.03-16.03 16.03v-32.05c8.85 0 16.03 7.17 16.03 16.02z" fill="#0081ff"/><circle cx="426.36" cy="255.922" fill="#0081ff" r="16.023"/><path d="m219.221 386.35v84.87c0 22.49-18.29 40.78-40.78 40.78h-59.39c-24.33 0-46.65-12.25-59.7-32.78-.02-.03-.04-.05-.05-.08-38.46-60.5-59.48-139.62-59.3-223.14h115.17c.33 25.35 4.9 51.38 13.69 78.96 2.03 6.34 7.86 10.61 14.52 10.61h35.06c22.49 0 40.78 18.29 40.78 40.78z" fill="#00ba9f"/></g></svg>