<svg id="Capa_1" enable-background="new 0 0 512 512" height="512" viewBox="0 0 512 512" width="512" xmlns="http://www.w3.org/2000/svg"><g><path d="m309.361 89.233h-106.723c-8.284 0-15 6.716-15 15v135.463c0 8.284 6.716 15 15 15h106.723c8.284 0 15-6.716 15-15v-135.463c0-8.284-6.716-15-15-15z" fill="#e7f2ff"/><path d="m332.138 322.672c-2.798-4.073-7.423-6.508-12.364-6.508h-127.549c-4.941 0-9.566 2.435-12.364 6.508s-3.41 9.264-1.636 13.876l63.775 165.836c2.228 5.794 7.793 9.616 14 9.616s11.772-3.822 14-9.616l63.774-165.836c1.775-4.612 1.162-9.803-1.636-13.876z" fill="#e7f2ff"/><path d="m324.36 104.23v135.47c0 8.28-6.71 15-15 15h-53.36v-165.47h53.36c8.29 0 15 6.72 15 15z" fill="#9dcfff"/><path d="m333.77 336.55-3.7 9.61-60.07 156.22c-2.23 5.8-7.79 9.62-14 9.62v-195.84h63.77c4.95 0 9.57 2.44 12.37 6.51 2.8 4.08 3.41 9.27 1.63 13.88z" fill="#9dcfff"/><path d="m256 0 22.6 59.615-22.6 59.615h-124.66c-8.28 0-15-6.71-15-15v-11.82c0-50.96 41.46-92.41 92.41-92.41z" fill="#00ddc0"/><path d="m256 224.7 34.18 60.73-34.18 60.73h-178.7c-8.28 0-15-6.71-15-15 0-58.7 47.76-106.46 106.47-106.46z" fill="#00ddc0"/><g fill="#00ba9f"><path d="m395.66 92.41v11.82c0 8.29-6.72 15-15 15h-124.66v-119.23h47.25c50.95 0 92.41 41.45 92.41 92.41z"/><path d="m449.7 331.16c0 8.29-6.72 15-15 15h-178.7v-121.46h87.23c58.71 0 106.47 47.76 106.47 106.46z"/></g></g></svg>