<svg id="Capa_1" enable-background="new 0 0 512 512" height="512" viewBox="0 0 512 512" width="512" xmlns="http://www.w3.org/2000/svg"><g><path d="m256 0 86.127 252.36-86.127 259.64c-68.38 0-132.67-26.63-181.02-74.98-48.35-48.35-74.98-112.64-74.98-181.02s26.63-132.67 74.98-181.02 112.64-74.98 181.02-74.98z" fill="#ff5e94"/><path d="m512 256c0 68.38-26.63 132.67-74.98 181.02s-112.64 74.98-181.02 74.98v-512c68.38 0 132.67 26.63 181.02 74.98s74.98 112.64 74.98 181.02z" fill="#ff3980"/><path d="m256 60 34 205-34 187c-108.08 0-196-87.93-196-196s87.92-196 196-196z" fill="#e7f2ff"/><path d="m452 256c0 108.07-87.92 196-196 196v-392c108.08 0 196 87.93 196 196z" fill="#9dcfff"/><g fill="#ff5e94"><path d="m343.684 199.536c-4.493-6.961-13.777-8.962-20.737-4.47s-8.961 13.776-4.469 20.737c7.722 11.965 11.803 25.865 11.803 40.196 0 40.958-33.322 74.28-74.28 74.28s-74.28-33.322-74.28-74.28c0-14.331 4.082-28.231 11.803-40.196 4.492-6.961 2.491-16.245-4.469-20.737-6.961-4.491-16.245-2.491-20.737 4.47-10.859 16.824-16.598 36.35-16.598 56.464 0 57.5 46.78 104.28 104.28 104.28s104.28-46.78 104.28-104.28c0-20.114-5.739-39.64-16.596-56.464z"/><path d="m256 282.667c8.284 0 15-6.716 15-15v-122c0-8.284-6.716-15-15-15s-15 6.716-15 15v122c0 8.284 6.716 15 15 15z"/></g><g fill="#ff3980"><path d="m343.68 199.54c-4.49-6.96-13.77-8.97-20.73-4.47-6.96 4.49-8.97 13.77-4.47 20.73 7.72 11.97 11.8 25.87 11.8 40.2 0 40.96-33.32 74.28-74.28 74.28v30c57.5 0 104.28-46.78 104.28-104.28 0-20.11-5.74-39.64-16.6-56.46z"/><path d="m271 145.67c0-8.29-6.72-15-15-15v152c8.28 0 15-6.72 15-15"/></g></g></svg>