<svg id="Capa_1" enable-background="new 0 0 512 512" height="512" viewBox="0 0 512 512" width="512" xmlns="http://www.w3.org/2000/svg"><g><path d="m477 0h-361.333c-8.284 0-15 6.716-15 15v136c0 8.271 6.696 14.981 14.967 15l381.333.837h.033c3.972 0 7.782-1.575 10.595-4.382 2.82-2.813 4.405-6.634 4.405-10.618v-116.837c0-19.299-15.701-35-35-35z" fill="#ffa64d"/><path d="m256 90 127.996 220.12-127.996 201.88h-221c-19.3 0-35-15.7-35-35v-427c0-27.57 22.43-50 50-50h97c27.57 0 50 22.43 50 50v40z" fill="#ffea80"/><path d="m511.996 140v337c0 19.3-15.7 35-35 35h-221v-422h206c27.57 0 50 22.42 50 50z" fill="#f3d332"/><path d="m291.923 166.126v-.001h.001z" fill="#e7f2ff"/><path d="m336.766 386.941-144.802-97.274c-6.875-4.617-16.196-2.79-20.815 4.087-4.62 6.876-2.79 16.196 4.087 20.815l144.802 97.274c2.567 1.725 5.474 2.551 8.351 2.551 4.828 0 9.57-2.328 12.465-6.638 4.619-6.876 2.789-16.195-4.088-20.815z" fill="#3ba9ff"/><path d="m340.764 194.106c-4.692-6.826-14.029-8.558-20.858-3.866l-144.802 99.516c-6.828 4.692-8.559 14.031-3.867 20.858 2.909 4.231 7.602 6.505 12.375 6.505 2.928 0 5.887-.855 8.482-2.639l144.803-99.516c6.828-4.692 8.558-14.03 3.867-20.858z" fill="#3ba9ff"/><path d="m183.599 250.548c-13.791 0-26.745 5.36-36.478 15.093-9.732 9.732-15.092 22.688-15.092 36.478s5.36 26.745 15.092 36.477 22.687 15.093 36.478 15.093 26.745-5.36 36.477-15.092 15.093-22.688 15.093-36.478-5.36-26.745-15.092-36.478-22.687-15.093-36.478-15.093z" fill="#0081ff"/><g fill="#3ba9ff"><path d="m169.02 298.59c-.14.58-.25 1.17-.31 1.76.07-.59.17-1.18.31-1.76z"/><path d="m171.24 310.61c.029.042.063.078.092.119-.14-.202-.285-.4-.412-.609.1.16.21.33.32.49z"/><path d="m172.38 312.08c-.368-.423-.714-.877-1.048-1.351.322.465.665.919 1.048 1.351z"/></g><path d="m328.4 347.822c-13.79.001-26.744 5.36-36.477 15.093-20.114 20.113-20.114 52.842 0 72.956 10.058 10.056 23.268 15.084 36.478 15.084s26.42-5.028 36.477-15.085c20.114-20.113 20.114-52.842.001-72.955-9.733-9.732-22.688-15.093-36.479-15.093z" fill="#0081ff"/><path d="m291.924 239.08c9.732 9.732 22.688 15.093 36.478 15.093s26.745-5.36 36.477-15.092 15.093-22.688 15.093-36.479c0-13.79-5.36-26.745-15.092-36.477s-22.688-15.093-36.478-15.093c-13.791 0-26.746 5.36-36.478 15.092s-15.092 22.687-15.092 36.477c-.001 13.792 5.359 26.747 15.092 36.479z" fill="#0081ff"/></g></svg>