<svg id="Capa_1" enable-background="new 0 0 512 512" height="512" viewBox="0 0 512 512" width="512" xmlns="http://www.w3.org/2000/svg"><g><path d="m255.999 295.994c-8.284 0-15 6.716-15 15v61.506c0 8.284 6.716 15 15 15s15-6.716 15-15v-61.506c0-8.284-6.716-15-15-15z" fill="#ff5e94"/><path d="m256.001 0 37.047 162.995-37.047 162.995c-89.88 0-163-73.12-163-162.99 0-89.88 73.12-163 163-163z" fill="#72bbff"/><path d="m418.999 163c0 84.81-65.13 154.71-148 162.3-4.94.46-9.94.69-15 .69v-325.99c89.88 0 163 73.12 163 163z" fill="#3ba9ff"/><path d="m271.001 325.3c3.24-.3 6.45-.69 9.63-1.17-3.18.49-6.39.88-9.63 1.17z" fill="#72bbff"/><g><path d="m214.751 357.5c-8.28 0-15 6.72-15 15v83.25c0 31.02 25.23 56.25 56.25 56.25l24.63-82.5-24.63-72z" fill="#ffea80"/></g><g><path d="m297.249 357.5h-41.25v154.5c31.02 0 56.25-25.23 56.25-56.25v-83.25c0-8.28-6.72-15-15-15z" fill="#f3d332"/></g><path d="m155.331 163c0 55.51 45.16 100.67 100.67 100.67l30.478-100.675-30.478-100.665c-55.51 0-100.67 45.16-100.67 100.67z" fill="#e7f2ff"/><path d="m255.999 62.33v201.34c55.51 0 100.67-45.16 100.67-100.67s-45.16-100.67-100.67-100.67z" fill="#9dcfff"/></g></svg>