<svg id="Capa_1" enable-background="new 0 0 512.016 512.016" height="512" viewBox="0 0 512.016 512.016" width="512" xmlns="http://www.w3.org/2000/svg"><g><path d="m53.358 53.366h440.332v443.573h-440.332z" fill="#ffea80"/><path d="m263.514 53.366h230.175v443.573h-230.175z" fill="#f3d332"/><path d="m497.016 38.338h-182.32c-6.49-22.13-26.97-38.33-51.18-38.33s-44.69 16.2-51.18 38.33h-107.8c-6.49-22.13-26.98-38.33-51.19-38.33-29.4 0-53.33 23.92-53.33 53.33 0 24.2 16.21 44.69 38.33 51.19v107.8c-22.12 6.49-38.33 26.98-38.33 51.18s16.21 44.69 38.33 51.18v182.32c0 8.28 6.72 15 15 15h443.67c8.452 0 15-6.878 15-15v-443.67c0-8.28-6.719-15-15-15zm-392.479 210.17c-5.1-17.37-18.82-31.09-36.19-36.18v-107.8c17.37-5.09 31.1-18.82 36.19-36.19h107.8c5.09 17.37 18.81 31.09 36.18 36.19v110.49c-15.68 5.38-28.11 17.81-33.49 33.49zm-36.19 66.18c17.37-5.09 31.09-18.81 36.19-36.18h109.1c27.063-3.335 64.88-64.88 64.88-64.88v-109.1c17.37-5.1 31.09-18.82 36.18-36.19h167.32v392.457l-84.697-84.697h45.595c8.284 0 15-6.716 15-15s-6.716-15-15-15c-88.162 0-83.146-.266-86.158.646-6.315 1.906-10.65 7.753-10.65 14.354v81.809c0 8.284 6.716 15 15 15s15-6.716 15-15v-45.596l84.697 84.697h-392.457z" fill="#3ba9ff"/><path d="m511.876 51.396c-.955-7.361-7.24-13.058-14.86-13.058h-182.32c-6.49-22.13-26.97-38.33-51.18-38.33-.001 0-.002 0-.002 0v30h.002c19.796 0 30.561 23.252 17.86 38.33-4.606 5.507-11.215 8.328-17.862 8.33v165.59c.788-.077 1.585-.13 2.402-.13 13.043 0 12.6-28.5 12.6-28.5v-109.1c17.37-5.1 31.09-18.82 36.18-36.19h167.32v392.457l-84.697-84.697h45.595c8.284 0 15-6.716 15-15s-6.716-15-15-15c-88.162 0-83.146-.265-86.158.646-6.315 1.906-10.65 7.753-10.65 14.354v81.809c0 8.284 6.716 15 15 15s15-6.716 15-15v-45.596l84.697 84.697h-197.29v30h233.502c7.771 0 13.917-5.818 14.86-13.067v-447.545z" fill="#0081ff"/><g fill="#ff5e94"><circle cx="53.358" cy="53.366" r="53.358"/><circle cx="53.358" cy="262.327" r="53.358"/><path d="m301.825 53.366c0 29.469-8.843 53.358-38.311 53.358-29.469 0-53.358-23.889-53.358-53.358s23.889-53.358 53.358-53.358c29.469 0 38.311 23.889 38.311 53.358z"/><path d="m301.825 262.327c0 29.469-8.843 53.358-38.311 53.358-29.469 0-53.358-23.889-53.358-53.358s23.889-53.358 53.358-53.358 38.311 23.889 38.311 53.358z"/></g><path d="m316.872 262.327c0-29.469-23.889-53.358-53.358-53.358v106.716c29.469 0 53.358-23.889 53.358-53.358z" fill="#ff3980"/><path d="m316.872 53.366c0-29.469-23.889-53.358-53.358-53.358v106.716c29.469 0 53.358-23.889 53.358-53.358z" fill="#ff3980"/></g></svg>