<svg id="Capa_1" enable-background="new 0 0 512 512" height="512" viewBox="0 0 512 512" width="512" xmlns="http://www.w3.org/2000/svg"><g><path d="m74.98 74.98c48.35-48.35 112.64-74.98 181.02-74.98l49 256-49 256c-50 0-98.13-14.31-139.72-41.47l-95.45 40.29c-1.88.79-3.86 1.18-5.83 1.18-3.9 0-7.74-1.52-10.61-4.39-4.31-4.32-5.58-10.82-3.21-16.44l40.29-95.45c-27.16-41.59-41.47-89.72-41.47-139.72 0-68.38 26.63-132.67 74.98-181.02z" fill="#ff5e94"/><path d="m512 256c0 53.6-16.36 104.69-46.72 147.55-8.37 11.82-17.81 23.02-28.26 33.47s-21.65 19.89-33.47 28.26c-42.86 30.36-93.95 46.72-147.55 46.72v-512c68.38 0 132.67 26.63 181.02 74.98s74.98 112.64 74.98 181.02z" fill="#ff3980"/><path d="m60 256c0 108.08 87.93 196 196 196v-392c-108.07 0-196 87.92-196 196z" fill="#e7f2ff"/><path d="m512 497c0 3.89-1.51 7.73-4.39 10.61-2.89 2.88-6.73 4.39-10.61 4.39-2.36 0-4.73-.55-6.92-1.69l-86.53-45.03-62.69-32.63c-26.35 12.68-55.52 19.35-84.86 19.35v-392c108.08 0 196 87.92 196 196 0 29.34-6.67 58.51-19.35 84.86l32.63 62.69 45.03 86.53c1.14 2.19 1.69 4.56 1.69 6.92z" fill="#9dcfff"/><g><g fill="#3ba9ff"><circle cx="256" cy="370.413" r="18.086"/><path d="m258.303 122.5h-4.605c-44.84 0-81.32 36.48-81.32 81.32 0 8.284 6.716 15 15 15s15-6.716 15-15c0-28.298 23.022-51.32 51.32-51.32h4.605c28.298 0 51.319 23.022 51.319 51.32s-23.021 51.319-51.319 51.319h-2.303c-8.284 0-15 6.716-15 15v32.18c0 8.284 6.716 15 15 15s15-6.716 15-15v-18.17c38.83-6.114 68.622-39.809 68.622-80.329 0-44.839-36.479-81.32-81.319-81.32z"/></g></g><g><g fill="#0081ff"><path d="m274.09 370.41c0 9.99-8.1 18.09-18.09 18.09v-36.17c9.99 0 18.09 8.09 18.09 18.08z"/><path d="m339.62 203.82c0 40.52-29.79 74.22-68.62 80.33v18.17c0 8.28-6.72 15-15 15v-62.18h2.3c28.3 0 51.32-23.02 51.32-51.32s-23.02-51.32-51.32-51.32h-2.3v-30h2.3c44.84 0 81.32 36.48 81.32 81.32z"/></g></g></g></svg>