<svg id="Capa_1" enable-background="new 0 0 512 512" height="512" viewBox="0 0 512 512" width="512" xmlns="http://www.w3.org/2000/svg"><g><g fill="#ffea80"><path d="m256 127.291 58 85.51-58 85.51h-141.02c-8.29 0-15-6.71-15-15 0-86.03 69.99-156.02 156.02-156.02z"/><path d="m256 91.313c8.284 0 15-6.716 15-15v-34c0-8.284-6.716-15-15-15s-15 6.716-15 15v34c0 8.284 6.716 15 15 15z"/><path d="m139.51 111.546c2.778 4.813 7.82 7.503 13.004 7.503 2.545 0 5.124-.648 7.486-2.013 7.175-4.142 9.633-13.315 5.49-20.49l-17-29.445c-4.142-7.175-13.317-9.633-20.49-5.49-7.175 4.142-9.633 13.315-5.49 20.49z"/><path d="m39.788 175.804 29.444 17c2.362 1.364 4.941 2.013 7.486 2.013 5.184 0 10.226-2.69 13.004-7.503 4.143-7.174 1.685-16.348-5.49-20.49l-29.444-17c-7.175-4.145-16.349-1.686-20.49 5.49-4.143 7.173-1.685 16.347 5.49 20.49z"/><path d="m15 298.313h34c8.284 0 15-6.716 15-15s-6.716-15-15-15h-34c-8.284 0-15 6.716-15 15s6.716 15 15 15z"/></g><path d="m448 283.313c0 8.284 6.716 15 15 15h34c8.284 0 15-6.716 15-15s-6.716-15-15-15h-34c-8.284 0-15 6.716-15 15z" fill="#f3d332"/><path d="m435.281 194.816c2.545 0 5.124-.648 7.486-2.013l29.444-17c7.175-4.143 9.633-13.316 5.49-20.49-4.142-7.176-13.316-9.634-20.49-5.49l-29.444 17c-7.175 4.143-9.633 13.316-5.49 20.49 2.779 4.813 7.821 7.503 13.004 7.503z" fill="#f3d332"/><path d="m352 117.036c2.362 1.364 4.941 2.013 7.486 2.013 5.184 0 10.226-2.691 13.004-7.503l17-29.445c4.143-7.175 1.685-16.349-5.49-20.49-7.175-4.144-16.349-1.684-20.49 5.49l-17 29.445c-4.143 7.175-1.685 16.348 5.49 20.49z" fill="#f3d332"/><g><path d="m256 365.2 18.333 45.119-18.333 45.121h-210.88c-24.88 0-45.12-20.24-45.12-45.12s20.24-45.12 45.12-45.12z" fill="#3ba9ff"/><path d="m512 410.318c0 24.88-20.24 45.13-45.12 45.13h-210.88v-90.25h210.88c24.88 0 45.12 20.24 45.12 45.12z" fill="#0081ff"/><ellipse cx="362.71" cy="410.319" fill="#ff3980" rx="74.37" ry="74.37" transform="matrix(.707 -.707 .707 .707 -183.904 376.654)"/></g><path d="m256 127.291v171.02h141.02c8.29 0 15-6.71 15-15 0-86.03-69.99-156.02-156.02-156.02z" fill="#f3d332"/><path d="m256 27.311v64c8.28 0 15-6.71 15-15v-34c0-8.28-6.72-15-15-15z" fill="#f3d332"/></g></svg>