<svg id="Capa_1" enable-background="new 0 0 512 512" height="512" viewBox="0 0 512 512" width="512" xmlns="http://www.w3.org/2000/svg"><g><path d="m375.829 74.997c-43.559 0-78.997 35.438-78.997 78.997 0 8.284 6.716 14.999 14.999 14.999h127.995c8.284 0 14.999-6.716 14.999-14.999.001-43.559-35.437-78.997-78.996-78.997z" fill="#ffea80"/><path d="m454.826 153.994c0 8.28-6.72 14.999-14.999 14.999h-63.997v-93.996c43.557 0 78.996 35.439 78.996 78.997z" fill="#f3d332"/><circle cx="103.673" cy="61.998" fill="#ff80ab" r="46.498"/><path d="m150.171 61.998c0 25.639-20.859 46.498-46.498 46.498v-92.997c25.639 0 46.498 20.86 46.498 46.499z" fill="#ff5e94"/><path d="m316.748 0h-121.496c-8.284 0-14.999 6.716-14.999 14.999 0 41.767 33.98 75.747 75.747 75.747s75.747-33.98 75.747-75.747c0-8.283-6.716-14.999-14.999-14.999z" fill="#00ddc0"/><path d="m331.747 14.999c0 41.768-33.979 75.747-75.747 75.747v-90.746h60.748c8.279 0 14.999 6.72 14.999 14.999z" fill="#00ba9f"/><path d="m454.82 220.94v1.32c0 6.8-3.76 9.94-8.34 15l-140.44 155.34c-.83.92-1.29 2.11-1.29 3.36v51.59c0 7.47-3.29 14.48-9.04 19.24l-39.71 32.95-7.79 6.46c-4.61 3.83-10.21 5.8-15.9 5.8-3.61 0-7.25-.79-10.69-2.41-8.86-4.16-14.37-12.84-14.37-22.63v-91c0-1.25-.46-2.44-1.29-3.36l-140.44-155.34c-4.58-5.06-8.34-8.2-8.34-15v-1.32l198.82-32.61z" fill="#e7f2ff"/><path d="m454.82 220.94v1.32c0 6.8-3.76 9.94-8.34 15l-140.44 155.34c-.83.92-1.29 2.11-1.29 3.36v51.59c0 7.47-3.29 14.48-9.04 19.24l-39.71 32.95v-311.41z" fill="#9dcfff"/><path d="m454.822 153.994v66.947h-397.644v-66.947c0-8.28 6.71-14.999 14.999-14.999h367.646c8.289 0 14.999 6.719 14.999 14.999z" fill="#9dcfff"/><path d="m454.822 153.994v66.947h-198.822v-81.947h183.823c8.289.001 14.999 6.72 14.999 15z" fill="#72bbff"/></g></svg>