<svg id="Capa_1" enable-background="new 0 0 512 512" height="512" viewBox="0 0 512 512" width="512" xmlns="http://www.w3.org/2000/svg"><g><path d="m505.184 199.429-240.65-156.65c-4.969-3.234-11.376-3.239-16.35-.011l-241.351 156.65c-4.261 2.766-6.833 7.501-6.833 12.582s2.572 9.816 6.833 12.582l168.167 137.418h158.122l172.061-137.429c4.253-2.767 6.817-7.498 6.817-12.571s-2.564-9.804-6.816-12.571z" fill="#fabc00"/><path d="m512 212c0 5.07-2.56 9.8-6.82 12.57l-92.5 60.21-76.94 50.08-2.62 1.71c-2.43 1.59-5.28 2.43-8.18 2.43h-68.94v-298.64c2.96-.08 5.94.73 8.53 2.42l154.97 100.88 85.68 55.77c4.26 2.77 6.82 7.5 6.82 12.57z" fill="#ffa64d"/><path d="m512 212v285c0 4.15-1.69 7.92-4.43 10.63-2.71 2.7-6.44 4.37-10.57 4.37h-482c-4.13 0-7.87-1.67-10.58-4.38-2.73-2.71-4.42-6.47-4.42-10.62v-285c0 5.08 2.57 9.82 6.83 12.58l169.9 110.28 2.66 1.72c2.44 1.58 5.27 2.42 8.17 2.42h137.38c2.9 0 5.75-.84 8.18-2.43l2.62-1.71 169.44-110.29c4.26-2.77 6.82-7.5 6.82-12.57z" fill="#ffea80"/><path d="m507.57 507.63c-2.71 2.7-6.44 4.37-10.57 4.37h-482c-4.13 0-7.87-1.67-10.58-4.38l172.31-172.76 2.66 1.72c2.44 1.58 5.27 2.42 8.17 2.42h137.38c2.9 0 5.75-.84 8.18-2.43l2.62-1.71z" fill="#f3d332"/><path d="m512 212v285c0 4.15-1.69 7.92-4.43 10.63-2.71 2.7-6.44 4.37-10.57 4.37h-241v-173h68.94c2.9 0 5.75-.84 8.18-2.43l2.62-1.71 76.94-50.08c.01 0 .01-.01.02-.02l92.48-60.19c4.26-2.77 6.82-7.5 6.82-12.57z" fill="#f1b500"/><path d="m507.57 507.63c-2.71 2.7-6.44 4.37-10.57 4.37h-241v-173h68.94c2.9 0 5.75-.84 8.18-2.43l2.62-1.71z" fill="#ffa64d"/><g><path d="m107.5 0h148.5l47.575 130.906-47.575 208.094h-68.44c-2.9 0-5.73-.84-8.17-2.42l-80.06-51.96c-4.26-2.76-6.83-7.5-6.83-12.58v-257.04c0-8.28 6.72-15 15-15z" fill="#e7f2ff"/></g><path d="m419.5 15v257.21c0 5.06-2.55 9.78-6.8 12.55-.01.01-.01.02-.02.02l-76.94 50.08-2.62 1.71c-2.43 1.59-5.28 2.43-8.18 2.43h-68.94v-339h148.5c8.28 0 15 6.72 15 15z" fill="#9dcfff"/><path d="m175.854 179h160.292c8.284 0 15-6.716 15-15s-6.716-15-15-15h-160.292c-8.284 0-15 6.716-15 15s6.716 15 15 15z" fill="#3ba9ff"/><path d="m351.15 164c0 8.28-6.72 15-15 15h-80.15v-30h80.15c8.28 0 15 6.72 15 15z" fill="#0081ff"/><path d="m336.146 218h-160.292c-8.284 0-15 6.716-15 15s6.716 15 15 15h160.292c8.284 0 15-6.716 15-15s-6.716-15-15-15z" fill="#3ba9ff"/><path d="m351.15 233c0 8.28-6.72 15-15 15h-80.15v-30h80.15c8.28 0 15 6.72 15 15z" fill="#0081ff"/><path d="m175.854 110h53.276c8.284 0 15-6.716 15-15s-6.716-15-15-15h-53.276c-8.284 0-15 6.716-15 15s6.716 15 15 15z" fill="#3ba9ff"/></g></svg>