<svg id="Capa_1" enable-background="new 0 0 512 512" height="512" viewBox="0 0 512 512" width="512" xmlns="http://www.w3.org/2000/svg"><g><path d="m256 0 30 199-30 313h-241c-8.28 0-15-6.72-15-15v-482c0-8.28 6.72-15 15-15h57.33l70.67 21z" fill="#5a5a5a"/><path d="m512 114v383c0 8.28-6.72 15-15 15h-241v-512h122c3.5 0 6.9 1.23 9.59 3.47l119 99c3.43 2.85 5.41 7.07 5.41 11.53z" fill="#444"/><path d="m437.33 307v205h-362.66v-205l181.33-38.17z" fill="#e7f2ff"/><path d="m437.33 307v205h-181.33v-243.17z" fill="#9dcfff"/><path d="m229.13 421.583h-53.275c-8.284 0-15 6.716-15 15s6.716 15 15 15h53.275c8.284 0 15-6.716 15-15s-6.716-15-15-15z" fill="#ff80ab"/><path d="m437.33 233v74h-362.66v-74c0-8.28 6.71-15 15-15h332.66c8.29 0 15 6.72 15 15z" fill="#ff5e94"/><path d="m437.33 233v74h-181.33v-89h166.33c8.29 0 15 6.72 15 15z" fill="#ff3980"/><path d="m336.146 352.583h-160.292c-8.284 0-15 6.716-15 15s6.716 15 15 15h160.291c8.284 0 15-6.716 15-15s-6.715-15-14.999-15z" fill="#ff80ab"/><path d="m336.15 352.58h-80.15v30h80.15c8.28 0 15-6.71 15-15 0-8.28-6.72-15-15-15z" fill="#ff3980"/><path d="m256 0 25.667 89.5-25.667 89.5h-168.67c-8.28 0-15-6.72-15-15v-164z" fill="#ffea80"/><path d="m336.33 0v164c0 8.28-6.71 15-15 15h-65.33v-179z" fill="#f3d332"/><path d="m271 59.583c-8.284 0-15 6.716-15 15v29.834c0 8.284 6.716 15 15 15s15-6.716 15-15v-29.834c0-8.284-6.716-15-15-15z" fill="#434b50"/></g></svg>