<svg id="Capa_1" enable-background="new 0 0 512.002 512.002" height="512" viewBox="0 0 512.002 512.002" width="512" xmlns="http://www.w3.org/2000/svg"><g><path d="m233.303 136.76h-80.993v-81.243c0-22.366 18.131-40.497 40.497-40.497 22.366 0 40.497 18.131 40.497 40.497v81.243z" fill="#f3d332"/><path d="m233.303 55.517v81.243h-40.497v-121.74c11.179 0 21.308 4.53 28.638 11.859s11.859 17.459 11.859 28.638z" fill="#ffa64d"/><path d="m121.312 437.027h142.988c0 33.111-26.842 59.953-59.953 59.953h-23.082c-33.111 0-59.953-26.842-59.953-59.953z" fill="#f3d332"/><path d="m264.301 437.027c0 5.18-.66 10.199-1.89 14.999-2.71 10.529-8.209 19.938-15.669 27.398-10.849 10.849-25.838 17.559-42.396 17.559h-11.539v-59.955h71.494z" fill="#ffa64d"/><path d="m192.812 79.011 48.19 196.16-48.19 176.85h-146.94c-16.81 0-31.75-8.76-39.96-23.44-8.21-14.67-7.85-31.98.96-46.31l20.47-33.31 6-9.76c.97-1.58 1.48-3.39 1.48-5.24v-96.96c0-87.11 70.87-157.99 157.99-157.99z" fill="#ffea80"/><path d="m379.693 428.586c-8.199 14.679-23.138 23.438-39.957 23.438h-146.928v-373.009c13.989 0 27.568 1.83 40.497 5.26 67.554 17.929 117.49 79.603 117.49 152.727v96.962c0 1.85.51 3.66 1.48 5.24l6 9.759 20.468 33.307c8.799 14.329 9.159 31.637.95 46.316z" fill="#f3d332"/><path d="m358.275 348.963h-330.933l6-9.759c.97-1.58 1.48-3.39 1.48-5.24v-14.999h315.974v14.999c0 1.85.51 3.66 1.48 5.24z" fill="#f3d332"/><path d="m358.275 348.963h-165.467v-29.998h157.987v14.999c0 1.85.51 3.66 1.48 5.24z" fill="#ffa64d"/><path d="m390.162 311.701c-67.19 0-121.85-54.66-121.85-121.84 0-67.19 54.66-121.85 121.85-121.85l23.34 113.33-23.34 130.35" fill="#ff5e94"/><path d="m512.002 189.856c0 67.184-54.656 121.84-121.84 121.84v-243.68c67.184 0 121.84 54.655 121.84 121.84z" fill="#ff3980"/><path d="m390.148 130.13h-19.119c-8.284 0-15 6.716-15 15s6.716 15 15 15h4.119v74.45c0 8.284 6.716 15 15 15s15-6.716 15-15v-89.45c0-8.284-6.716-15-15-15z" fill="#ffea80"/><path d="m390.162 130.131v119.45c8.28-.01 14.99-6.72 14.99-15v-89.45c0-8.28-6.71-14.99-14.99-15z" fill="#f3d332"/></g></svg>