<svg id="Capa_1" enable-background="new 0 0 512 512" height="512" viewBox="0 0 512 512" width="512" xmlns="http://www.w3.org/2000/svg"><g><path d="m102 0h192.5l87.285 205.582-87.285 229.418h-192.5c-13.79 0-25-11.21-25-25v-385c0-13.79 11.21-25 25-25z" fill="#72bbff"/><path d="m512 25v385c0 13.888-11.336 25-25 25h-192.5v-435h192.5c13.79 0 25 11.21 25 25z" fill="#3ba9ff"/><path d="m25 77h192.5l38.5 206-38.5 229h-192.5c-13.79 0-25-11.21-25-25v-385c0-13.79 11.21-25 25-25z" fill="#e7f2ff"/><path d="m435 102v385c0 13.888-11.336 25-25 25h-192.5v-435h192.5c13.79 0 25 11.21 25 25z" fill="#9dcfff"/><g fill="#72bbff"><path d="m493.24 434.21c1.17-.31 2.32-.69 3.42-1.16-1.1.47-2.24.86-3.42 1.16z"/><path d="m497.77 432.55c2.19-1.05 4.2-2.41 5.98-4.01-1.78 1.61-3.79 2.97-5.98 4.01z"/><path d="m504.62 427.71c.57-.56 1.11-1.15 1.62-1.77-.51.62-1.05 1.22-1.62 1.77z"/></g><g fill="#e7f2ff"><path d="m416.21 511.22c.79-.21 1.57-.45 2.33-.73-.76.28-1.54.53-2.33.73z"/><path d="m423.02 508.33c.64-.4 1.27-.82 1.87-1.27-.6.45-1.23.88-1.87 1.27z"/><path d="m433.01 496.77c.48-1.13.88-2.29 1.19-3.5-.3 1.2-.7 2.37-1.19 3.5z"/></g><path d="m212.53 342.76c-.13-.47-.27-.94-.44-1.4-.25-.69-.55-1.36-.9-2-2.55-4.67-7.5-7.84-13.19-7.84h-46v-114.01c0-14.99-13.39-14.99-15-14.99-8.28 0-15 6.72-15 15v63h-30v-27c0-8.28-6.72-15-15-15s-15 6.72-15 15v42c0 8.28 6.72 15 15 15h45v68h-30v-27c0-8.28-6.72-15-15-15s-15 6.72-15 15v42c0 8.28 6.72 15 15 15h45v103.48h30v-150.48h31v26.99c0 4.66 2.13 8.82 5.46 11.58 1.48 1.23 3.2 2.17 5.08 2.75 1.41.44 2.91.68 4.46.68s3.05-.24 4.46-.68c.7-.21 1.38-.48 2.04-.8 0-.01 0-.01.01-.01.43-.21.85-.44 1.26-.68 1.03-.63 1.98-1.38 2.83-2.23.34-.34.66-.69.97-1.06 1.22-1.48 2.17-3.2 2.75-5.08.06-.17.11-.34.15-.51.35-1.26.53-2.59.53-3.96v-42c0-1.29-.16-2.55-.47-3.75z" fill="#00ddc0"/><circle cx="259.773" cy="200.739" fill="#ff5e94" r="39.56"/><path d="m425.53 506.57c-4.27 3.4-9.66 5.43-15.53 5.43h-206.57l112.61-195.06z" fill="#ff5e94"/></g></svg>