<svg id="Capa_1" enable-background="new 0 0 512 512" height="512" viewBox="0 0 512 512" width="512" xmlns="http://www.w3.org/2000/svg"><g><g><path d="m497 289h-381.333c-8.284 0-15-6.716-15-15v-136.837c0-8.284 6.716-15 15-15h381.333c8.284 0 15 6.716 15 15v136.837c0 8.284-6.716 15-15 15z" fill="#ffa64d"/></g><path d="m441.87 104.81v122.35c0 8.28-6.71 15-15 15h-341.75c-8.28 0-15-6.72-15-15v-212.16c0-8.28 6.72-15 15-15h251.18l105.57 104.8z" fill="#e7f2ff"/><path d="m441.87 104.8v122.36c0 8.28-6.71 15-15 15h-170.87v-242.16h80.3z" fill="#9dcfff"/><path d="m462 181.339h-265v-39.996c0-27.57-22.43-50-50-50h-97c-27.57 0-50 22.43-50 50v335.692.048.021c.058 19.252 15.736 34.896 35 34.896h442c19.299 0 35-15.701 35-35v-245.661c0-27.57-22.43-50-50-50z" fill="#ffea80"/><path d="m511.996 231.34v245.66c0 19.3-15.7 35-35 35h-221v-330.66h206c27.57 0 50 22.43 50 50z" fill="#f3d332"/><path d="m388.44 259h-264.88c-19.299 0-35 15.701-35 35v106c0 19.299 15.701 35 35 35h264.88c19.299 0 35-15.701 35-35v-106c0-19.299-15.701-35-35-35z" fill="#00ddc0"/><path d="m423.44 294v106c0 19.3-15.7 35-35 35h-132.44v-176h132.44c19.3 0 35 15.7 35 35z" fill="#00ba9f"/><path d="m341.875 332h-171.75c-8.284 0-15 6.716-15 15s6.716 15 15 15h171.75c8.284 0 15-6.716 15-15s-6.716-15-15-15z" fill="#3ba9ff"/><path d="m356.88 347c0 8.28-6.72 15-15 15h-85.88v-30h85.88c8.28 0 15 6.72 15 15z" fill="#0081ff"/><path d="m441.87 104.8h-90.57c-8.284 0-15-6.716-15-15v-89.8z" fill="#3ba9ff"/></g></svg>