<svg id="Capa_1" enable-background="new 0 0 512 512" height="512" viewBox="0 0 512 512" width="512" xmlns="http://www.w3.org/2000/svg"><g><path d="m256 0 23.67 65-23.67 412.07h-149.69c-8.28 0-15-6.71-15-15v-297.38c0-90.81 73.88-164.69 164.69-164.69z" fill="#5a5a5a"/><path d="m420.686 164.69v297.38c0 8.29-6.71 15-15 15h-149.69v-477.07c90.81 0 164.69 73.88 164.69 164.69z" fill="#444"/><path d="m91.31 458.08v38.92c0 8.28 6.72 15 15 15h149.686l19.892-26.161-19.888-192.449c-90.81 0-164.69 73.88-164.69 164.69z" fill="#ff5e94"/><path d="m420.69 458.08v38.92c0 8.28-6.71 15-15 15h-48.094l-49.401-18.771-52.195 18.771v-218.61c15.66 0 30.82 2.2 45.19 6.3 4.62 1.32 9.17 2.84 13.62 4.55 61.85 23.72 105.88 83.74 105.88 153.84z" fill="#ff3980"/><path d="m224.81 238.51c-8.28 0-15 6.71-15 15v97.54c0 24.92 20.28 45.19 45.19 45.19.34 0 .67 0 1-.01v-157.72z" fill="#ffa68c"/><path d="m301.186 253.51v97.54c0 24.92-20.27 45.19-45.19 45.19v-157.73h30.19c8.29 0 15 6.71 15 15z" fill="#f59280"/><path d="m179.39 168.79c-13.72 4.65-22.95 17.51-22.95 32v23.17c0 54.89 44.66 99.55 99.56 99.55v-180.69z" fill="#ffbda9"/><path d="m355.556 156.21v67.75c0 32.91-16.06 62.15-40.75 80.28-4.29 3.15-8.85 5.97-13.62 8.41-13.57 6.94-28.93 10.86-45.19 10.86v-180.69l54.92-18.61c10.29-3.48 21.71-1.79 30.54 4.54s14.1 16.6 14.1 27.46z" fill="#ffa68c"/><path d="m357.596 440.62v71.38h-101.6v-71.38c0-8.29 6.72-15 15-15h71.6c8.29 0 15 6.71 15 15z" fill="#3ba9ff"/></g></svg>