<svg id="Capa_1" enable-background="new 0 0 512 512" height="512" viewBox="0 0 512 512" width="512" xmlns="http://www.w3.org/2000/svg"><g><path d="m256 0 68.118 256.004-68.118 255.996c-68.38 0-132.67-26.63-181.02-74.98-48.35-48.35-74.98-112.64-74.98-181.02s26.63-132.67 74.98-181.02 112.64-74.98 181.02-74.98z" fill="#ffea80"/><path d="m512 256c0 68.38-26.63 132.67-74.98 181.02s-112.64 74.98-181.02 74.98v-512c68.38 0 132.67 26.63 181.02 74.98s74.98 112.64 74.98 181.02z" fill="#f3d332"/><path d="m60 256c0 108.07 87.92 196 196 196v-392c-108.08 0-196 87.93-196 196z" fill="#e7f2ff"/><path d="m452 256c0 108.07-87.92 196-196 196v-392c108.08 0 196 87.93 196 196z" fill="#9dcfff"/><g fill="#f3d332"><path d="m256 351.313c-8.284 0-15 6.716-15 15v10.813c0 8.284 6.716 15 15 15s15-6.716 15-15v-10.813c0-8.285-6.716-15-15-15z"/><path d="m256 119.875c-8.284 0-15 6.716-15 15v10.813c0 8.284 6.716 15 15 15s15-6.716 15-15v-10.813c0-8.284-6.716-15-15-15z"/><path d="m145.687 241h-10.812c-8.284 0-15 6.716-15 15s6.716 15 15 15h10.812c8.284 0 15-6.716 15-15s-6.715-15-15-15z"/></g><g fill="#ffa64d"><path d="m256 119.88v40.81c8.28 0 15-6.72 15-15v-10.81c0-8.29-6.72-15-15-15z"/><path d="m256 351.31v40.81c8.28 0 15-6.71 15-15v-10.81c0-8.28-6.72-15-15-15z"/><path d="m377.12 241h-10.81c-8.28 0-15 6.72-15 15s6.72 15 15 15h10.81c8.29 0 15-6.72 15-15s-6.71-15-15-15z"/></g><path d="m237.407 220.952-20.997 74.638 91.43 24.49c3.72 1 7.28-.2 9.66-2.58z" fill="#ff5e94"/><path d="m320.084 307.842-24.494-91.429-60.958 18.223 82.865 82.865c2.382-2.383 3.584-5.947 2.587-9.659z" fill="#ff3980"/><path d="m194.5 194.5c-2.38 2.38-3.58 5.94-2.58 9.66l24.49 91.43 39.59-39.59 3.223-30.412z" fill="#72bbff"/><path d="m295.587 216.41-39.591 39.591-61.497-61.497c2.383-2.383 5.947-3.585 9.659-2.588z" fill="#3ba9ff"/></g></svg>