<svg id="Capa_1" enable-background="new 0 0 512 512" height="512" viewBox="0 0 512 512" width="512" xmlns="http://www.w3.org/2000/svg"><g><path d="m256 0 31.073 232-31.073 280c-14.67 0-29.33-3.1-42.99-9.3l-104.43-47.4c-37.08-16.83-61.04-54.02-61.04-94.74v-252.04c0-8.29 6.71-15 15-15 43.29 0 78.51-35.23 78.51-78.52 0-8.28 6.72-15 15-15z" fill="#00ddc0"/><path d="m464.46 108.51v252.07c0 40.71-23.95 77.89-61.02 94.71l-104.46 47.41c-13.66 6.2-28.32 9.3-42.98 9.3v-512h99.95c8.28 0 15 6.72 15 15 0 20.97 8.17 40.69 23 55.52s34.54 22.99 55.51 22.99c3.98 0 7.8 1.58 10.61 4.39 2.81 2.82 4.39 6.63 4.39 10.61z" fill="#00ba9f"/><path d="m256 66 23.5 172.125-23.5 207.875c-5.46 0-10.74-1.14-15.71-3.4l-104.43-47.4c-13.56-6.15-22.32-19.75-22.32-34.64v-200.35c0-5.87 3.42-11.2 8.77-13.64 31.79-14.51 57.29-40.01 71.79-71.8 2.44-5.34 7.77-8.77 13.65-8.77z" fill="#e7f2ff"/><path d="m398.46 160.31v200.27c0 14.88-8.75 28.46-22.3 34.61l-104.45 47.41c-4.97 2.26-10.26 3.4-15.71 3.4v-380h48.15c5.88 0 11.22 3.44 13.66 8.79 7.15 15.73 17.07 29.99 29.47 42.4 12.4 12.4 26.67 22.31 42.39 29.47 5.36 2.43 8.79 7.77 8.79 13.65z" fill="#9dcfff"/><g><g><g><path d="m230.631 320c-.348 0-.696-.012-1.045-.037-4.186-.292-8.058-2.324-10.677-5.603l-39.13-49c-5.169-6.474-4.112-15.912 2.361-21.082 6.474-5.17 15.912-4.112 21.082 2.361l28.952 36.254 78.02-73.792c6.021-5.693 15.513-5.428 21.205.591s5.429 15.512-.59 21.205l-89.871 85c-2.795 2.644-6.487 4.103-10.307 4.103z" fill="#3ba9ff"/></g></g></g><g><g><path d="m330.81 230.9-74.81 70.76v-41.31l54.19-51.25c6.02-5.69 15.52-5.43 21.21.59s5.43 15.52-.59 21.21z" fill="#0081ff"/></g></g><path d="m138.99 35.86c.74-.1 1.45-.25 2.15-.45-.7.21-1.41.36-2.15.45z" fill="#3ba9ff"/></g></svg>