<svg id="Capa_1" enable-background="new 0 0 512 512" height="512" viewBox="0 0 512 512" width="512" xmlns="http://www.w3.org/2000/svg"><g><path d="m512 149.25v347.75c0 8.28-6.72 15-15 15h-482c-8.28 0-15-6.72-15-15v-347.75l256-57.783z" fill="#e7f2ff"/><path d="m512 134.25v362.75c0 8.28-6.72 15-15 15h-241v-362.75h241c8.28 0 15-6.72 15-15z" fill="#9dcfff"/><path d="m256 0 59.085 59.965-59.085 89.285h-134.53l-40.97-22.75-80.5 22.75v-134.25c0-8.28 6.72-15 15-15h135.26l41.24 20.5z" fill="#5a5a5a"/><path d="m333.67 116.97 29.11 32.28h-106.78z" fill="#3ba9ff"/><path d="m497 0-73.56 21.08-34.7-21.08z" fill="#3ba9ff"/><path d="m512 15v134.25h-149.22l-29.113-32.281-77.667 32.281v-149.25h132.74l34.7 21.075s81.6-19.325 84.33-16.505c2.62 2.69 4.23 6.37 4.23 10.43z" fill="#444"/><path d="m150.26 0-135.47 134.61-14.79 14.64h121.47l15.12-14.64 132.45-134.61z" fill="#ff5e94"/><path d="m497 0h-108.26l-132.74 134.25-15.4 15h122.18l15.02-15 129.97-129.68c-2.73-2.82-6.55-4.57-10.77-4.57z" fill="#ff3980"/><path d="m437.39 380.626h-362.78c-8.284 0-15 6.716-15 15s6.716 15 15 15h362.78c8.284 0 15-6.716 15-15s-6.716-15-15-15z" fill="#3ba9ff"/><path d="m452.39 395.63c0 8.28-6.72 15-15 15h-181.39v-30h181.39c8.28 0 15 6.71 15 15z" fill="#0081ff"/><path d="m378.667 407.96v-24.667c0-16.661-13.506-30.167-30.167-30.167-16.661 0-30.167 13.506-30.167 30.167v24.667c0 16.661 13.506 30.167 30.167 30.167 16.661-.001 30.167-13.507 30.167-30.167z" fill="#ff3980"/><path d="m310.086 253.34-98.172-56.679c-6.667-3.849-15 .962-15 8.66v113.359c0 7.698 8.333 12.509 15 8.66l98.172-56.68c6.667-3.849 6.667-13.471 0-17.32z" fill="#ff5e94"/><path d="m310.09 270.66-54.09 31.23v-79.78l54.09 31.23c6.66 3.85 6.66 13.47 0 17.32z" fill="#ff3980"/></g></svg>