<svg id="Capa_1" enable-background="new 0 0 512 512" height="512" viewBox="0 0 512 512" width="512" xmlns="http://www.w3.org/2000/svg"><g><path d="m406.102 154.102v292.893c0 35.843-29.152 65.005-65.005 65.005h-170.194c-35.853 0-65.005-29.162-65.005-65.005v-292.893l150.102-37.133z" fill="#00ddc0"/><path d="m256 154.102v357.898h85.097c35.853 0 65.005-29.162 65.005-65.005v-292.893z" fill="#00ba9f"/><path d="m300.383 0h-44.383-44.383c-11.031 0-20.002 8.971-20.002 20.002v39.963l64.385 31.502 64.385-31.502v-39.963c0-11.031-8.971-20.002-20.002-20.002z" fill="#ffea80"/><path d="m320.385 20.002v39.963h-64.385v-59.965h44.383c11.031 0 20.002 8.971 20.002 20.002z" fill="#f3d332"/><path d="m406.102 94.967v59.135h-300.204v-59.135c0-19.301 15.701-35.003 35.003-35.003h230.198c19.302.001 35.003 15.702 35.003 35.003z" fill="#ff5e94"/><path d="m406.102 94.967v59.135h-150.102v-94.137h115.099c19.302 0 35.003 15.701 35.003 35.002z" fill="#ff3980"/><g><path d="m220.346 446.911c-3.033 0-6.094-.917-8.745-2.823-6.727-4.837-8.258-14.211-3.422-20.937l66.027-91.821h-65.676c-5.655 0-10.829-3.179-13.383-8.224-2.555-5.044-2.056-11.097 1.291-15.655l71.318-97.137c4.904-6.678 14.294-8.116 20.969-3.214 6.678 4.903 8.118 14.292 3.214 20.97l-53.785 73.258h65.315c5.627 0 10.782 3.15 13.35 8.158 2.567 5.008 2.115 11.032-1.17 15.601l-83.111 115.58c-2.931 4.075-7.529 6.244-12.192 6.244z" fill="#ffea80"/></g><g fill="#f3d332"><path d="m291.943 228.068-35.943 48.954v-50.684l11.761-16.021c4.9-6.681 14.291-8.121 20.962-3.22 6.68 4.91 8.12 14.29 3.22 20.971z"/><path d="m315.645 325.085-59.645 82.947v-51.394l18.201-25.312h-18.201v-30.002h47.474c5.621 0 10.781 3.15 13.341 8.161 2.57 5.01 2.12 11.03-1.17 15.6z"/></g></g></svg>