<svg id="Capa_1" enable-background="new 0 0 512 512" height="512" viewBox="0 0 512 512" width="512" xmlns="http://www.w3.org/2000/svg"><g><path d="m271.676 453.178-190.486-113.451-31.19-83.731 31.19-83.724 190.328-113.355c7.031-4.27 16.027.791 16.027 9.017v376.132c.001 8.145-8.836 13.218-15.869 9.112z" fill="#ffea80"/><path d="m271.68 453.176-190.49-113.45v-83.73h206.36v188.07c0 8.14-8.84 13.22-15.87 9.11z" fill="#f3d332"/><path d="m81.19 339.727h-38.989c-23.307 0-42.201-18.894-42.201-42.201v-83.051c0-23.307 18.894-42.201 42.201-42.201h38.989z" fill="#72bbff"/><path d="m81.19 339.726h-38.99c-23.31 0-42.2-18.89-42.2-42.2v-41.53h81.19z" fill="#3ba9ff"/><g><g><g><path d="m349.526 317.929c-8.284 0-15 6.716-15 15s6.716 15 15 15c50.69 0 91.929-41.239 91.929-91.929s-41.239-91.929-91.929-91.929c-8.284 0-15 6.716-15 15s6.716 15 15 15c34.148 0 61.929 27.781 61.929 61.929s-27.781 61.929-61.929 61.929z" fill="#72bbff"/></g><g><path d="m349.526 93.525c-8.284 0-15 6.716-15 15s6.716 15 15 15c73.046 0 132.474 59.428 132.474 132.475s-59.428 132.475-132.474 132.475c-8.284 0-15 6.716-15 15s6.716 15 15 15c89.588 0 162.474-72.886 162.474-162.475s-72.886-162.475-162.474-162.475z" fill="#72bbff"/></g></g></g><g><g fill="#3ba9ff"><path d="m349.53 347.926c-8.29 0-15-6.71-15-15 0-8.28 6.71-15 15-15 34.14 0 61.93-27.78 61.93-61.93h30c0 50.69-41.24 91.93-91.93 91.93z"/><path d="m349.53 418.476c-8.29 0-15-6.72-15-15 0-8.29 6.71-15 15-15 73.04 0 132.47-59.43 132.47-132.48h30c0 89.59-72.89 162.48-162.47 162.48z"/></g></g></g></svg>