<svg id="Capa_1" enable-background="new 0 0 512 512" height="512" viewBox="0 0 512 512" width="512" xmlns="http://www.w3.org/2000/svg"><g><path d="m433.076 15.011 39.461 240.992-39.461 240.986h-282.657l-40.62-240.986 40.62-240.992z" fill="#ffea80"/><path d="m150.419 15.011v481.978h-87.696c-5.523 0-10-4.477-10-10v-461.978c0-5.523 4.477-10 10-10z" fill="#00ddc0"/><g><g><path d="m90.443 115.756h-75.444c-8.283 0-14.999-6.715-14.999-14.999s6.716-14.999 14.999-14.999h75.444c8.284 0 14.999 6.716 14.999 14.999s-6.715 14.999-14.999 14.999z" fill="#ff3980"/></g><g><path d="m90.443 219.252h-75.444c-8.283 0-14.999-6.716-14.999-15s6.716-14.999 14.999-14.999h75.444c8.284 0 14.999 6.716 14.999 14.999s-6.715 15-14.999 15z" fill="#ff3980"/></g><g><path d="m90.443 322.747h-75.444c-8.283 0-14.999-6.716-14.999-14.999 0-8.284 6.716-14.999 14.999-14.999h75.444c8.284 0 14.999 6.716 14.999 14.999s-6.715 14.999-14.999 14.999z" fill="#ff3980"/></g><g><path d="m90.443 426.242h-75.444c-8.283 0-14.999-6.715-14.999-14.999s6.716-14.999 14.999-14.999h75.444c8.284 0 14.999 6.716 14.999 14.999 0 8.284-6.715 14.999-14.999 14.999z" fill="#ff3980"/></g></g><path d="m291.743 15.011h141.333v481.978h-141.333z" fill="#f3d332"/><path d="m433.074 204.252h78.926v103.495h-78.926z" fill="#00ba9f"/><path d="m512 25.011v75.747h-78.926v-85.747h68.926c5.523 0 10 4.477 10 10z" fill="#00ba9f"/><path d="m433.074 100.757h78.926v103.495h-78.926z" fill="#ff3980"/><path d="m433.074 307.748h78.926v103.495h-78.926z" fill="#ff3980"/><path d="m512 411.243v75.747c0 5.523-4.477 10-10 10h-68.927v-85.746h78.927z" fill="#00ba9f"/><path d="m325.819 194.748h23.813c18.637 0 33.8-15.162 33.8-33.8v-61.888c0-18.638-15.163-33.8-33.8-33.8h-58.717c-19.136 0-36.692 9.64-46.963 25.786-27.743 43.611-43.331 101.271-43.893 162.357-.576 62.646 15.012 122.149 43.893 167.551 10.271 16.146 27.828 25.786 46.963 25.786h58.717c18.637 0 33.8-15.162 33.8-33.8v-61.889c0-18.638-15.163-33.8-33.8-33.8h-23.376c-3.082 0-5.782-1.973-6.718-4.909-12.938-40.557-13.058-76.419-.378-112.859.984-2.832 3.661-4.735 6.659-4.735z" fill="#ff5e94"/><path d="m325.82 194.75h23.81c18.64 0 33.8-15.16 33.8-33.8v-61.89c0-18.64-15.16-33.8-33.8-33.8h-57.89v381.48h57.89c18.64 0 33.8-15.16 33.8-33.8v-61.89c0-18.64-15.16-33.8-33.8-33.8h-23.37c-3.09 0-5.79-1.97-6.72-4.91-12.94-40.55-13.06-76.42-.38-112.86.98-2.83 3.66-4.73 6.66-4.73z" fill="#ff3980"/></g></svg>