<svg id="Capa_1" enable-background="new 0 0 512 512" height="512" viewBox="0 0 512 512" width="512" xmlns="http://www.w3.org/2000/svg"><g><path d="m256.002 0 75.913 240.151-75.913 271.849h-191.39c-8.28 0-15-6.72-15-15v-482c0-8.28 6.72-15 15-15z" fill="#e7f2ff"/><path d="m447.388 0h-191.39v512h191.39c8.29 0 15-6.72 15-15v-482c0-8.28-6.71-15-15-15z" fill="#9dcfff"/><path d="m462.388 15v111.45h-112.05c-4.9 0-9.25-2.35-11.99-5.98-.59-.78-1.1-1.63-1.53-2.52-.31-.64-.57-1.3-.78-1.99 0-.02-.01-.03-.02-.05-.44-1.41-.68-2.91-.68-4.46v-111.45h112.05c8.28 0 15 6.72 15 15z" fill="#0081ff"/><path d="m335.338 0v111.45c0 1.55.24 3.05.68 4.46.01.02.02.03.02.05.21.69.47 1.35.78 1.99.43.89.94 1.74 1.53 2.52 2.74 3.63 7.09 5.98 11.99 5.98h112.05z" fill="#3ba9ff"/><g><path d="m255.942 161.61h.05l10.26 15.64-10.26 14.36h-.05c-8.41 0-15.26 6.85-15.26 15.26v164.49c0 8.28-6.71 15-15 15-8.28 0-15-6.72-15-15v-164.49c0-24.95 20.31-45.26 45.26-45.26z" fill="#ff5e94"/><path d="m255.992 429.45v35.23c-9.29 4.1-19.56 6.37-30.35 6.37-41.66 0-75.55-33.89-75.55-75.55v-208.64c0-58.4 47.5-105.9 105.9-105.91l10.26 15.55-10.26 14.45c-41.86.01-75.9 34.05-75.9 75.91v208.64c0 25.12 20.43 45.55 45.55 45.55 11.65 0 22.29-4.39 30.35-11.6z" fill="#ff5e94"/><g fill="#ff3980"><path d="m255.995 161.607v30c8.39.03 15.21 6.87 15.21 15.26v188.63c0 13.47-5.88 25.6-15.21 33.95v35.23c26.59-11.7 45.21-38.31 45.21-69.18v-188.63c0-24.93-20.28-45.23-45.21-45.26z"/><path d="m255.995 80.947v30c41.86 0 75.92 34.05 75.92 75.91v184.5c0 8.28 6.71 15 15 15 8.28 0 15-6.72 15-15v-184.5c0-58.4-47.52-105.91-105.92-105.91z"/></g></g></g></svg>