<svg id="Capa_1" enable-background="new 0 0 511.996 511.996" height="512" viewBox="0 0 511.996 511.996" width="512" xmlns="http://www.w3.org/2000/svg"><g><path d="m256 359.748 33.814 76.08-33.814 76.08h-179.92c-41.95 0-76.08-34.13-76.08-76.08s34.13-76.08 76.08-76.08z" fill="#00ddc0"/><path d="m511.996 435.833c0 41.95-34.13 76.08-76.08 76.08h-179.92v-152.16h179.92c41.95 0 76.08 34.13 76.08 76.08z" fill="#00ba9f"/><g fill="#ffea80"><circle cx="97.362" cy="435.867" r="16.023"/><circle cx="176.681" cy="435.867" r="16.023"/><circle cx="256" cy="435.867" r="16.023"/></g><g><path d="m272.026 435.863c0 8.85-7.18 16.03-16.03 16.03v-32.05c8.85 0 16.03 7.18 16.03 16.02z" fill="#f3d332"/></g><circle cx="335.319" cy="435.867" fill="#f3d332" r="16.023"/><circle cx="414.638" cy="435.867" fill="#f3d332" r="16.023"/><path d="m256 .083c-47.796 0-86.681 38.885-86.681 86.681v99.696c0 8.284 6.716 15 15 15s15-6.716 15-15v-99.696c0-31.254 25.427-56.681 56.681-56.681s56.681 25.427 56.681 56.681v99.696c0 8.284 6.716 15 15 15s15-6.716 15-15v-99.696c0-47.796-38.885-86.681-86.681-86.681z" fill="#5a5a5a"/><path d="m342.686 86.763v99.7c0 8.28-6.72 15-15 15-8.29 0-15-6.72-15-15v-99.7c0-31.25-25.43-56.68-56.69-56.68v-30c47.8 0 86.69 38.88 86.69 86.68z" fill="#444"/><path d="m256 145.258v244.49c-67.41 0-122.24-54.84-122.24-122.24 0-67.41 54.83-122.25 122.24-122.25z" fill="#ff5e94"/><path d="m378.246 267.503c0 36.78-16.33 69.82-42.12 92.25-21.47 18.68-49.5 30-80.13 30v-244.49c20.45 0 39.74 5.05 56.69 13.96 11.12 5.84 21.23 13.34 30 22.17 21.97 22.12 35.56 52.56 35.56 86.11z" fill="#ff3980"/><path d="m212.21 251.448c0 18.87 12.01 35 28.79 41.13v20.06c0 8.28 6.72 15 15 15l10.75-77.065-10.75-42.915c-24.14 0-43.79 19.64-43.79 43.79z" fill="#5a5a5a"/><path d="m255.996 207.653v119.98c8.29 0 15-6.71 15-15v-20.05c16.78-6.14 28.79-22.26 28.79-41.14 0-24.14-19.64-43.79-43.79-43.79z" fill="#444"/></g></svg>