<svg id="Capa_1" enable-background="new 0 0 512 512" height="512" viewBox="0 0 512 512" width="512" xmlns="http://www.w3.org/2000/svg"><g><g><path d="m134.799 113.523 50.04 50.04v21.155l-21.21.055-50.04-50.03c-5.85-5.86-5.85-15.36 0-21.21.01-.01.03-.03.04-.03.35-.36.72-.69 1.1-1 .01-.02.02-.03.03-.03 4.12-3.34 9.6-4.17 14.4-2.5 2.06.72 3.99 1.9 5.64 3.55z" fill="#5a5a5a"/></g><path d="m184.84 163.56-10.58 10.58-60.63-60.64c.35-.36.72-.69 1.1-1 .01-.02.02-.03.03-.03 4.12-3.34 9.6-4.17 14.4-2.5 2.06.72 3.99 1.9 5.64 3.55z" fill="#444"/><path d="m164.752 78.109-43.409-43.41c-1.133-1.134-2.441-2.078-3.873-2.797l-55.486-27.875c-5.78-2.904-12.767-1.777-17.34 2.797l-37.912 37.911c-4.586 4.586-5.706 11.6-2.774 17.386l28.032 55.33c.717 1.414 1.653 2.706 2.774 3.827l43.409 43.409c2.929 2.929 6.768 4.394 10.606 4.394 3.839 0 7.678-1.465 10.606-4.394l65.365-65.365c5.859-5.858 5.859-15.356.002-21.213z" fill="#9a9a9a"/><path d="m121.337 34.694 43.409 43.409c5.862 5.862 5.855 15.358 0 21.213l-32.654 32.654-106.299-106.298 18.844-18.845c4.575-4.575 11.561-5.706 17.338-2.8l55.493 27.874c1.429.722 2.737 1.662 3.869 2.793z" fill="#818181"/><path d="m487.548 380.711-201.744-201.812c-2.813-2.814-6.628-4.395-10.607-4.395h-.001c-3.978 0-7.793 1.58-10.606 4.394l-85.566 85.561c-5.857 5.856-5.858 15.353-.002 21.212l201.751 201.812c14.26 14.261 33.219 22.113 53.386 22.113s39.126-7.852 53.387-22.113c29.437-29.439 29.437-77.337.002-106.772z" fill="#5a5a5a"/><path d="m285.802 178.894 10.607 10.607 191.137 191.208c29.43 29.43 29.437 77.308.028 106.744l-265.779-265.779 42.794-42.78c1.407-1.407 3.069-2.503 4.865-3.253 1.803-.742 3.748-1.146 5.735-1.138 3.987 0 7.799 1.577 10.613 4.391z" fill="#444"/><path d="m298.721 144.765-26.326-26.326s0 0 0-.001c-11.698-11.695-30.731-11.697-42.428-.001l-111.4 111.4c-5.666 5.667-8.787 13.2-8.787 21.213 0 8.014 3.121 15.548 8.787 21.213l26.326 26.326c5.85 5.85 13.533 8.774 21.217 8.774 7.682 0 15.364-2.924 21.212-8.771l111.4-111.4c11.695-11.698 11.695-30.73-.001-42.427z" fill="#ffea80"/><path d="m272.395 118.437 26.325 26.325c11.695 11.695 11.696 30.731 0 42.426l-55.706 55.706-68.759-68.759 55.706-55.706c5.848-5.848 13.527-8.775 21.213-8.768 7.68.001 15.366 2.935 21.221 8.776z" fill="#f3d332"/><path d="m441.787 420.475-153.009-153.009c-5.857-5.857-15.355-5.857-21.213 0s-5.858 15.355 0 21.213l153.009 153.009c2.929 2.929 6.768 4.394 10.606 4.394 3.839 0 7.678-1.465 10.606-4.394 5.859-5.857 5.859-15.355.001-21.213z" fill="#ffea80"/><path d="m441.79 420.48-153.01-153.01c-5.86-5.86-15.35-5.86-21.2-.01l174.22 174.22c5.85-5.86 5.85-15.35-.01-21.2z" fill="#f3d332"/><path d="m511.619 89.144c-1.01-11.477-8.356-21.051-19.171-24.984-10.783-3.921-22.52-1.313-30.637 6.805l-25.12 25.12c-5.617 5.616-14.837 5.708-20.557.204-2.741-2.639-4.272-6.277-4.31-10.245-.04-4.168 1.606-8.227 4.517-11.138l24.707-24.707c8.117-8.117 10.725-19.856 6.804-30.638-3.932-10.812-13.503-18.158-24.978-19.168-29.254-2.572-57.832 7.958-78.393 28.908-18.221 18.563-28.112 43.216-27.852 69.415.084 8.487 1.237 16.79 3.38 24.759l-305.816 305.816c-9.152 9.151-14.193 21.32-14.193 34.263s5.04 25.112 14.192 34.264c9.447 9.446 21.855 14.17 34.264 14.17s24.817-4.724 34.263-14.17l305.74-305.738c8.304 2.258 16.958 3.424 25.785 3.424.157 0 .313-.001.47-.001 25.935-.122 50.319-10.288 68.658-28.628 20.497-20.496 30.792-48.829 28.247-77.731z" fill="#e7f2ff"/><path d="m511.619 89.141c-1.011-11.476-8.358-21.043-19.17-24.982-10.783-3.924-22.521-1.308-30.639 6.809l-25.116 25.116c-5.621 5.621-14.842 5.706-20.555.205l-.212-.212-27.117 27.117-374.624 374.624c18.894 18.894 49.639 18.894 68.532 0l305.737-305.737c8.457 2.291 17.275 3.458 26.262 3.422 25.93-.12 50.31-10.288 68.653-28.631 20.499-20.498 30.794-48.825 28.249-77.731z" fill="#9dcfff"/></g></svg>