<svg id="Capa_1" enable-background="new 0 0 512 512" height="512" viewBox="0 0 512 512" width="512" xmlns="http://www.w3.org/2000/svg"><g><g><path d="m256.001 0 43.965 256-43.965 256h-36.33c-16.55 0-30-13.46-30-30v-12.94c0-19.77-10.76-38.22-28.07-48.15l-.85-.49c-17.49-10.15-39.02-10.3-56.19-.39l-11.11 6.42c-14.33 8.27-32.71 3.34-40.99-10.98l-36.33-62.94c-8.27-14.32-3.34-32.7 10.98-40.98l11.17-6.44c17.14-9.9 27.77-28.55 27.72-48.66v-.91c.05-20.1-10.58-38.75-27.72-48.65l-11.17-6.44c-14.32-8.28-19.25-26.66-10.98-40.98l36.33-62.94c4.01-6.94 10.48-11.9 18.22-13.97 7.74-2.08 15.83-1.01 22.77 2.99l11.11 6.42c17.17 9.91 38.7 9.76 56.2-.4l.86-.49c17.29-9.92 28.05-28.37 28.05-48.14v-12.94c0-16.54 13.45-30 30-30z" fill="#ffea80"/></g><path d="m495.867 352.53-36.33 62.94c-8.27 14.32-26.65 19.25-40.98 10.98l-11.12-6.42c-17.16-9.91-38.7-9.76-56.2.4l-.83.48c-17.32 9.93-28.07 28.38-28.07 48.15v12.94c0 16.54-13.46 30-30 30h-36.34v-512h36.34c16.54 0 30 13.46 30 30v12.94c0 19.77 10.75 38.22 28.06 48.15l.86.49c17.48 10.15 39.02 10.3 56.18.39l11.12-6.42c14.33-8.27 32.71-3.34 40.98 10.98l36.33 62.94c8.27 14.32 3.35 32.7-10.98 40.98l-11.16 6.44c-17.15 9.9-27.77 28.55-27.73 48.66v.86c-.04 20.15 10.58 38.8 27.73 48.7l11.16 6.44c14.33 8.28 19.25 26.66 10.98 40.98z" fill="#f3d332"/><path d="m256.001 129.81 21 124.89-21 127.49c-69.58 0-126.19-56.61-126.19-126.19s56.61-126.19 126.19-126.19z" fill="#5a5a5a"/><path d="m382.187 256c0 69.58-56.61 126.19-126.19 126.19v-252.38c69.58 0 126.19 56.61 126.19 126.19z" fill="#444"/><path d="m256.001 194.81 21 61.19-21 61.19c-33.74 0-61.19-27.45-61.19-61.19s27.45-61.19 61.19-61.19z" fill="#ffea80"/><path d="m317.187 256c0 33.74-27.45 61.19-61.19 61.19v-122.38c33.74 0 61.19 27.45 61.19 61.19z" fill="#f3d332"/></g></svg>