<svg id="Capa_1" enable-background="new 0 0 512 512" height="512" viewBox="0 0 512 512" width="512" xmlns="http://www.w3.org/2000/svg"><g><path d="m422.055 177.049c-4.403-3.921-151.681-135.028-156.083-138.946-5.686-5.061-14.262-5.061-19.947 0-4.401 3.918-151.679 135.025-156.083 138.946-3.196 2.846-5.024 6.922-5.024 11.202v247.749c0 8.284 6.716 15 15 15h312.161c8.284 0 15-6.716 15-15v-247.749c0-4.28-1.828-8.357-5.024-11.202z" fill="#ffea80"/><path d="m427.084 188.251v247.749c0 8.28-6.72 15-15 15h-156.09v-416.699c3.56 0 7.13 1.27 9.98 3.8 1.44 1.29 18.26 16.25 40.36 35.93 45.28 40.31 112.76 100.39 115.72 103.02 3.2 2.84 5.03 6.92 5.03 11.2z" fill="#f3d332"/><path d="m451.795.001h-70.666c-8.284 0-15 6.716-15 15v156.667c0 8.284 6.716 15 15 15h70.666c8.284 0 15-6.716 15-15v-156.667c0-8.284-6.716-15-15-15z" fill="#ffea80"/><path d="m466.795 15.001v156.67c0 8.28-6.72 15-15 15h-35.34v-186.67h35.34c8.28 0 15 6.72 15 15z" fill="#f3d332"/><g><path d="m223.218 12.48c9.34-8.32 21.06-12.48 32.78-12.48l27 55-27 60.32-173.6 154.54c-9.04 8.04-20.68 12.47-32.77 12.47-14.06 0-27.49-6.02-36.84-16.51-8.76-9.84-13.16-22.5-12.39-35.65.76-13.15 6.6-25.21 16.43-33.97z" fill="#3ba9ff"/></g><path d="m499.204 265.821c-8.75 9.83-20.82 15.67-33.97 16.43-.97.06-1.95.09-2.92.09-12.09 0-23.61-4.38-32.72-12.49-.31-.28-1.17-1.04-2.51-2.24-12.84-11.43-70.14-62.43-120.75-107.48-10.33-9.2-20.39-18.15-29.73-26.47l-20.61-18.34v-115.32h.01c11.72 0 23.44 4.16 32.78 12.48l17.55 15.62 35.84 31.91c59.88 53.3 149.08 132.71 152.99 136.19 9.84 8.76 15.68 20.83 16.44 33.97.76 13.15-3.64 25.81-12.4 35.65z" fill="#0081ff"/><path d="m255.998 270.43 27 91.237-27 74.333h-68.55v-97.01c0-37.87 30.69-68.56 68.55-68.56z" fill="#3ba9ff"/><path d="m324.554 338.99v97.01h-68.56v-165.57c37.87.001 68.56 30.69 68.56 68.56z" fill="#0081ff"/><path d="m496.667 421h-481.337c-8.284 0-15 6.716-15 15v61c0 8.284 6.716 15 15 15h481.337c8.284 0 15-6.716 15-15v-61c0-8.284-6.716-15-15-15z" fill="#00ddc0"/><path d="m511.664 436v61c0 8.28-6.71 15-15 15h-240.67v-91h240.669c8.291 0 15.001 6.72 15.001 15z" fill="#00ba9f"/></g></svg>