<svg id="Capa_1" enable-background="new 0 0 512 512" height="512" viewBox="0 0 512 512" width="512" xmlns="http://www.w3.org/2000/svg"><g><path d="m256 0 87.667 239.667-87.667 272.333c-68.38 0-132.67-26.63-181.02-74.98-48.35-48.35-74.98-112.64-74.98-181.02s26.63-132.67 74.98-181.02 112.64-74.98 181.02-74.98z" fill="#00ddc0"/><path d="m512 256c0 68.38-26.63 132.67-74.98 181.02s-112.64 74.98-181.02 74.98v-512c68.38 0 132.67 26.63 181.02 74.98s74.98 112.64 74.98 181.02z" fill="#00ba9f"/><path d="m256 60 33.814 178.333-33.814 213.667c-108.08 0-196-87.93-196-196s87.92-196 196-196z" fill="#e7f2ff"/><path d="m452 256c0 108.07-87.92 196-196 196v-392c108.08 0 196 87.93 196 196z" fill="#9dcfff"/><g><g><g><path d="m255.999 290.548c-26.809 0-51.68 10.763-70.031 30.306-5.671 6.039-5.373 15.532.667 21.203 2.896 2.719 6.584 4.065 10.265 4.065 3.997 0 7.985-1.588 10.938-4.731 12.621-13.44 29.726-20.843 48.163-20.843 18.438 0 35.542 7.401 48.164 20.842 5.671 6.037 15.164 6.337 21.203.666s6.337-15.164.666-21.203c-18.354-19.543-43.226-30.306-70.035-30.305z" fill="#00ddc0"/></g><g><path d="m255.999 220.965c-37.708.001-72.69 15.14-98.503 42.629-5.671 6.039-5.373 15.531.667 21.202 2.896 2.719 6.584 4.065 10.265 4.065 3.997 0 7.985-1.588 10.938-4.732 20.082-21.386 47.298-33.163 76.634-33.164 29.336 0 56.553 11.777 76.635 33.163 5.671 6.037 15.163 6.337 21.203.666 6.039-5.671 6.337-15.164.666-21.203-25.814-27.488-60.797-42.626-98.505-42.626z" fill="#00ddc0"/></g><g><path d="m381.528 206.33c-32.895-35.029-77.476-54.32-125.529-54.32-48.054 0-92.633 19.292-125.528 54.321-5.671 6.039-5.373 15.532.667 21.203 2.896 2.719 6.584 4.065 10.265 4.065 3.997 0 7.985-1.588 10.938-4.731 27.163-28.928 63.977-44.858 103.659-44.858s76.496 15.931 103.66 44.857c5.671 6.037 15.164 6.337 21.203.666 6.038-5.671 6.336-15.164.665-21.203z" fill="#00ddc0"/></g></g></g><g><g><g><path d="m256 290.55v30c18.44 0 35.54 7.4 48.16 20.84 5.67 6.04 15.17 6.34 21.21.67 6.03-5.68 6.33-15.17.66-21.21-18.35-19.54-43.22-30.3-70.03-30.3z" fill="#00ba9f"/></g><g><path d="m256 220.96v30c29.34 0 56.55 11.78 76.63 33.17 5.68 6.04 15.17 6.33 21.21.66s6.33-15.16.66-21.2c-25.81-27.49-60.79-42.63-98.5-42.63z" fill="#00ba9f"/></g><g><path d="m381.53 206.33c-32.9-35.03-77.48-54.32-125.53-54.32v30c39.68 0 76.5 15.93 103.66 44.86 5.67 6.03 15.16 6.33 21.2.66s6.34-15.16.67-21.2z" fill="#00ba9f"/></g></g></g></g></svg>