<svg id="Capa_1" enable-background="new 0 0 512 512" height="512" viewBox="0 0 512 512" width="512" xmlns="http://www.w3.org/2000/svg"><g><g><path d="m254.97.22h1.03l27 193.447-27 208.883h-73.62c-8.28 0-15-6.72-15-15v-.26c0-63.2-14.11-126.64-40.8-183.46-8.85-18.83-13.39-39-13.5-59.95-.4-78.66 63.25-143.11 141.89-143.66z" fill="#ffea80"/></g><path d="m398.915 143.131c0 21.16-4.51 41.53-13.43 60.56-16.53 35.29-28.24 73.03-34.77 111.599-3.29 19.37-5.26 38.95-5.88 58.53-.02.38-.03.75-.03 1.13-.13 4.11-.19 8.23-.19 12.34v.26c0 8.28-6.71 15-15 15h-73.62v-402.339h.01c38 0 73.72 14.72 100.699 41.51 27.221 27.03 42.211 63.05 42.211 101.41z" fill="#f3d332"/><path d="m230.5 95.58c-22.33 0-40.5 18.17-40.5 40.5v6.8c0 22.33 18.17 40.5 40.5 40.5h10.5v179.56c0 8.29 6.72 15 15 15v-273.3c-6.96-5.66-15.85-9.06-25.5-9.06zm10.5 57.8h-10.5c-5.79 0-10.5-4.71-10.5-10.5v-6.8c0-5.79 4.71-10.5 10.5-10.5s10.5 4.71 10.5 10.5z" fill="#f3d332"/><path d="m306.496 153.381h-35v-17.3c0-12.9-6.07-24.42-15.5-31.84v273.699c.16.01.33.01.5.01 3.71 0 7.09-1.34 9.7-3.56 3.24-2.75 5.3-6.86 5.3-11.44v-179.57h35c8.29 0 15-6.71 15-15 0-8.28-6.71-14.999-15-14.999z" fill="#ffa64d"/><path d="m321.691 420.843h-131.382c-8.284 0-15 6.716-15 15 0 41.874 34.067 75.941 75.941 75.941h9.5c41.874 0 75.941-34.067 75.941-75.941 0-8.284-6.716-15-15-15z" fill="#f3d332"/><path d="m336.696 435.839c0 41.88-34.07 75.95-75.95 75.95h-4.75v-90.95h65.7c8.28 0 15 6.72 15 15z" fill="#ffa64d"/><g><path d="m15.015 267.89c-4.755 0-9.431-2.254-12.344-6.459-4.718-6.81-3.021-16.154 3.788-20.872l36.03-24.962c6.811-4.717 16.154-3.021 20.872 3.788s3.021 16.154-3.788 20.872l-36.03 24.962c-2.604 1.804-5.582 2.671-8.528 2.671z" fill="#ffea80"/></g><g><path d="m51.018 119.235c-2.946 0-5.923-.865-8.528-2.671l-36.031-24.962c-6.809-4.717-8.506-14.062-3.788-20.872 4.719-6.809 14.062-8.504 20.872-3.788l36.03 24.962c6.81 4.718 8.506 14.062 3.788 20.872-2.912 4.204-7.59 6.459-12.343 6.459z" fill="#ffea80"/></g><g><path d="m460.982 119.235c-4.755 0-9.431-2.255-12.344-6.459-4.718-6.81-3.021-16.154 3.788-20.872l36.03-24.962c6.808-4.717 16.154-3.022 20.872 3.788s3.021 16.154-3.788 20.872l-36.03 24.962c-2.605 1.805-5.581 2.671-8.528 2.671z" fill="#f3d332"/></g><g><path d="m496.985 267.89c-2.946 0-5.923-.866-8.528-2.671l-36.03-24.962c-6.81-4.718-8.506-14.062-3.788-20.872 4.717-6.81 14.063-8.507 20.872-3.788l36.03 24.962c6.81 4.718 8.506 14.062 3.788 20.872-2.913 4.204-7.589 6.459-12.344 6.459z" fill="#f3d332"/></g><g><path d="m173.07 312.95h82.93l35 28.717-35 32.723h-82.93c-16.97 0-30.72-13.75-30.72-30.72 0-8.49 3.44-16.17 9-21.72 5.55-5.56 13.23-9 21.72-9z" fill="#9a9a9a"/><path d="m173.07 374.39h82.93l35 28.16-35 33.29h-82.93c-16.97 0-30.72-13.75-30.72-30.72 0-8.48 3.44-16.17 9-21.73 5.55-5.56 13.23-9 21.72-9z" fill="#5a5a5a"/></g><path d="m369.655 343.67c0 8.49-3.44 16.17-9 21.72-4.23 4.23-9.71 7.24-15.82 8.43-1.91.37-3.89.57-5.91.57h-82.93v-61.44h82.93c4.17 0 8.16.83 11.79 2.34 11.12 4.62 18.94 15.59 18.94 28.38z" fill="#818181"/><path d="m369.655 405.119c0 8.48-3.44 16.16-9 21.72s-13.25 9-21.73 9h-82.93v-61.45h82.93c2.01 0 3.98.19 5.88.56 14.16 2.75 24.85 15.21 24.85 30.17z" fill="#444"/></g></svg>