<svg id="Capa_1" enable-background="new 0 0 512 512" height="512" viewBox="0 0 512 512" width="512" xmlns="http://www.w3.org/2000/svg"><g><path d="m255.998 0 72.401 210.876-72.401 224.814c-.68 0-1.36.13-1.99.41l-167.75 72.98c-4.49 1.95-9.25 2.92-13.98 2.92-6.71 0-13.37-1.94-19.17-5.74-9.9-6.49-15.81-17.43-15.81-29.27v-451.99c0-13.78 11.21-25 25-25z" fill="#ff5e94"/><path d="m474.702 25v451.988c0 11.84-5.91 22.78-15.81 29.271-9.9 6.49-22.29 7.54-33.151 2.82l-167.753-72.971c-.63-.28-1.31-.42-1.99-.42v-435.688h193.703c13.791 0 25.001 11.21 25.001 25z" fill="#ff3980"/><path d="m425.738 509.08-167.75-72.97c-.63-.28-1.31-.42-1.99-.42.68 0 1.36.13 1.99.41z" fill="#ff3980"/><g><path d="m255.998 89.09 30 130.07-30 113.87c-1.69 0-3.38.37-4.89 1.12l-43.93 21.76c-5.83 2.89-12.07 4.31-18.27 4.31-8.67 0-17.25-2.78-24.47-8.22-11.6-8.73-17.22-22.85-14.67-36.85l8.39-46.09c.46-2.52-.46-5.06-2.52-6.95l-35.54-32.64c-10.94-10.04-15.02-24.93-10.66-38.86 4.53-14.48 16.99-24.79 32.52-26.91l49.12-6.73c3.28-.45 6.05-2.27 7.42-4.88l21.97-41.93c6.81-13 20.42-21.07 35.53-21.07z" fill="#ffea80"/></g><path d="m391.901 229.474-35.541 32.631c-2.06 1.9-2.98 4.43-2.52 6.95l8.39 46.091c2.55 14-3.07 28.12-14.67 36.86-12.39 9.33-28.771 10.83-42.741 3.9l-43.931-21.75c-1.51-.75-3.2-1.13-4.89-1.13v-243.935c15.11 0 28.72 8.07 35.531 21.07l21.97 41.931c1.37 2.61 4.14 4.43 7.42 4.88l49.121 6.72c15.53 2.13 27.98 12.44 32.511 26.92 4.37 13.931.28 28.822-10.65 38.862z" fill="#f3d332"/></g></svg>