<svg id="Capa_1" enable-background="new 0 0 512 512" height="512" viewBox="0 0 512 512" width="512" xmlns="http://www.w3.org/2000/svg"><g><path d="m427.78 482h-382.614c-8.362 0-15.166-6.804-15.166-15.166v-.239c0-8.362 6.804-15.165 15.166-15.165h176.478c24.904 0 45.165-20.262 45.165-45.166s-20.261-45.165-45.165-45.165h-94.074c-8.284 0-15 6.716-15 15s6.716 15 15 15h94.073c8.362 0 15.165 6.803 15.165 15.165s-6.803 15.166-15.165 15.166h-176.477c-24.904 0-45.166 20.26-45.166 45.165v.239c0 24.904 20.262 45.166 45.166 45.166h382.614c8.284 0 15-6.716 15-15s-6.716-15-15-15z" fill="#3ba9ff"/><path d="m485.52 404.5-44.04 98.62c-2.42 5.4-7.78 8.88-13.7 8.88s-11.28-3.48-13.7-8.88l-44.04-98.62 57.74-17z" fill="#3ba9ff"/><path d="m485.516 404.5-44.04 98.62c-2.42 5.4-7.78 8.88-13.7 8.88v-107.5z" fill="#0081ff"/><path d="m512 96.32v245.68l-84.22 21.259-84.22-21.259v-245.68l84.216-16.653z" fill="#ffea80"/><path d="m427.776 96.32h84.22v245.68h-84.22z" fill="#f3d332"/><path d="m512 342c0 2.08-.43 4.17-1.3 6.12l-25.18 56.38h-115.48l-25.18-56.38c-.87-1.95-1.3-4.04-1.3-6.12z" fill="#e7f2ff"/><path d="m512 342c0 2.08-.43 4.17-1.3 6.12l-25.18 56.38h-57.74v-62.5z" fill="#9dcfff"/><path d="m512 84.21v12.11h-168.44v-12.11c0-46.43 37.78-84.21 84.22-84.21s84.22 37.78 84.22 84.21z" fill="#ff5e94"/><path d="m511.996 84.21v12.11h-84.22v-96.32c46.44 0 84.22 37.78 84.22 84.21z" fill="#ff3980"/></g></svg>