<svg id="Capa_1" enable-background="new 0 0 512.016 512.016" height="512" viewBox="0 0 512.016 512.016" width="512" xmlns="http://www.w3.org/2000/svg"><g><path d="m53.358 53.366h405.301v417.922h-405.301z" fill="#ffea80"/><path d="m256.008 53.366h202.65v417.922h-202.65z" fill="#f3d332"/><path d="m473.686 407.488v-302.96c22.12-6.5 38.33-26.99 38.33-51.19 0-29.41-23.93-53.33-53.33-53.33-24.21 0-44.7 16.2-51.19 38.33-4.545 0-298.386 0-302.96 0-6.49-22.13-26.98-38.33-51.19-38.33-29.4 0-53.33 23.92-53.33 53.33 0 24.2 16.21 44.69 38.33 51.19v302.96c-22.12 6.5-38.33 26.99-38.33 51.19 0 29.41 23.93 53.33 53.33 53.33 24.21 0 44.7-16.2 51.19-38.33h302.96c6.49 22.13 26.98 38.33 51.19 38.33 29.4 0 53.33-23.92 53.33-53.33 0-24.2-16.21-44.69-38.33-51.19zm-66.19 36.19h-302.96c-5.09-17.37-18.82-31.1-36.19-36.19v-128.98h182.958l94.166 94.167h-38.527c-8.284 0-15 6.716-15 15s6.716 15 15 15h74.74c8.309 0 14.974-6.773 14.998-14.956 0-.015.002-.029.002-.044v-74.74c0-8.284-6.716-15-15-15s-15 6.716-15 15v38.527l-95.789-94.167 1.623-188.957h134.98c5.09 17.37 18.82 31.1 36.19 36.19v302.96c-17.371 5.09-31.101 18.82-36.191 36.19zm-164.98-195.17h-174.169v-143.98c17.37-5.09 31.1-18.82 36.19-36.19h137.98v180.17z" fill="#3ba9ff"/><path d="m512.016 53.338c0-29.41-23.93-53.33-53.33-53.33-24.21 0-44.7 16.2-51.19 38.33-2.212 0-78.619 0-151.48 0v244.883l89.454 89.454h-38.527c-8.284 0-15 6.716-15 15s6.716 15 15 15h74.74c8.309 0 14.974-6.773 14.998-14.956 0-.015.002-.029.002-.044v-74.74c0-8.284-6.716-15-15-15s-15 6.716-15 15v38.527l-94.167-94.167v-188.957h134.98c5.09 17.37 18.82 31.1 36.19 36.19v302.96c-17.37 5.09-31.1 18.82-36.19 36.19h-151.48v30h151.48c6.49 22.13 26.98 38.33 51.19 38.33 29.4 0 53.33-23.92 53.33-53.33 0-24.2-16.21-44.69-38.33-51.19v-302.96c22.12-6.5 38.33-26.99 38.33-51.19z" fill="#0081ff"/><circle cx="53.358" cy="53.366" fill="#ff5e94" r="53.358"/><circle cx="458.659" cy="53.366" fill="#ff3980" r="53.358"/><circle cx="53.358" cy="458.651" fill="#ff5e94" r="53.358"/><circle cx="458.659" cy="458.651" fill="#ff3980" r="53.358"/></g></svg>