<svg id="Capa_1" enable-background="new 0 0 512 512" height="512" viewBox="0 0 512 512" width="512" xmlns="http://www.w3.org/2000/svg"><g><path d="m256 0 85.71 238-85.71 274h-119.73c-4.43 0-8.64-1.96-11.49-5.37l-120.29-143.52c-2.26-2.7-3.5-6.11-3.5-9.64v-194.94c0-3.54 1.25-6.97 3.53-9.67l120.98-143.53c2.85-3.38 7.04-5.33 11.46-5.33z" fill="#ff5e94"/><path d="m511.01 158.53v194.94c0 3.54-1.25 6.97-3.53 9.67l-120.98 143.53c-2.85 3.38-7.04 5.33-11.46 5.33h-119.04v-512h119.73c4.43 0 8.64 1.96 11.49 5.37l120.29 143.52c2.26 2.7 3.5 6.11 3.5 9.64z" fill="#ff3980"/><path d="m256 70 50.333 156.5-50.333 215.5h-87.06c-4.44 0-8.65-1.96-11.5-5.37l-82.95-98.97c-2.26-2.7-3.5-6.12-3.5-9.64v-143.93c0-3.54 1.25-6.96 3.53-9.67l83.52-99.09c2.85-3.38 7.05-5.33 11.47-5.33z" fill="#e7f2ff"/><path d="m441.01 183.98v143.93c0 3.54-1.25 6.96-3.53 9.67l-83.52 99.09c-2.85 3.38-7.05 5.33-11.47 5.33h-86.49v-372h87.06c4.44 0 8.65 1.96 11.5 5.37l82.95 98.97c2.26 2.7 3.5 6.12 3.5 9.64z" fill="#9dcfff"/><g fill="#ff5e94"><circle cx="256" cy="341.172" r="18.086"/><path d="m256 291.767c8.284 0 15-6.716 15-15v-110.026c0-8.284-6.716-15-15-15s-15 6.716-15 15v110.025c0 8.285 6.716 15.001 15 15.001z"/></g><g fill="#ff3980"><path d="m274.09 341.17c0 9.99-8.1 18.09-18.09 18.09v-36.17c9.99 0 18.09 8.09 18.09 18.08z"/><path d="m271 276.77c0 8.28-6.72 15-15 15v-140.03c8.28 0 15 6.72 15 15"/></g></g></svg>